<?xml version="1.0" encoding="UTF-8"?>
<svg width="24px" height="24px" viewBox="0 0 24 24" version="1.1" xmlns="http://www.w3.org/2000/svg" xmlns:xlink="http://www.w3.org/1999/xlink">
    <!-- Generator: sketchtool 52.2 (67145) - http://www.bohemiancoding.com/sketch -->
    <title>5DDC6CC2-A71F-4513-B110-007AFE333710</title>
    <desc>Created with sketchtool.</desc>
    <g id="Landing-Pages" stroke="none" stroke-width="1" fill="none" fill-rule="evenodd" stroke-linecap="round" stroke-linejoin="round">
        <g id="LP---ecommerce" transform="translate(-1068.000000, -1850.000000)" stroke="#303A44">
            <g id="section-3---how" transform="translate(-360.000000, 768.000000)">
                <g id="Group-4" transform="translate(1090.000000, 896.000000)">
                    <g id="Group-3-Copy-2" transform="translate(240.000000, 171.000000)">
                        <g id="how-ecomm-4" transform="translate(83.000000, 0.000000)">
                            <g id="icon-ecomm-4" transform="translate(15.000000, 15.000000)">
                                <g id="Regular">
                                    <circle id="Oval" stroke-width="1.5" cx="4.499" cy="7.5" r="2.25"></circle>
                                    <path d="M9.751,23.25 C9.18203225,23.2509286 8.66151782,22.9298672 8.407,22.421 L7.737,21.079 C7.48523245,20.5709092 6.96704763,20.2496114 6.4,20.25 L4.5,20.25 C3.67157288,20.25 3,19.5784271 3,18.75 L3,12.75 C2.99954811,12.1968136 3.30360263,11.6882795 3.79111664,11.4268499 C4.27863064,11.1654203 4.87046309,11.1935345 5.331,11.5 L6.447,12.244 C6.94048681,12.5713453 7.51981553,12.7453179 8.112,12.744 L9.749,12.744 C10.5774271,12.744 11.249,13.4155729 11.249,14.244 C11.249,15.0724271 10.5774271,15.744 9.749,15.744 L8.112,15.744 C7.39093785,15.7467099 6.67536071,15.6186379 6,15.366 L6,17.25 L6.4,17.25 C8.10585024,17.2446843 9.66655265,18.2090239 10.425,19.737 L11.096,21.079 C11.3284465,21.5437367 11.3038116,22.0956719 11.030886,22.537852 C10.7579605,22.9800322 10.2756261,23.2494629 9.756,23.25 L9.751,23.25 Z" id="Shape" stroke-width="1.5"></path>
                                    <path d="M4.499,20.25 L1.499,20.25" id="Shape" stroke-width="1.5"></path>
                                    <path d="M9.749,15.75 L20.249,15.75" id="Shape" stroke-width="1.5"></path>
                                    <path d="M14.999,15.75 L14.999,23.25" id="Shape" stroke-width="1.5"></path>
                                    <polyline id="Shape" stroke-width="1.5" points="14.249 12.75 20.249 12.75 22.499 7.5"></polyline>
                                    <path d="M14.249,7.125 C13.9728576,7.125 13.749,7.34885763 13.749,7.625 C13.749,7.90114237 13.9728576,8.125 14.249,8.125 C14.5251424,8.125 14.749,7.90114237 14.749,7.625 C14.749,7.34885763 14.5251424,7.125 14.249,7.125" id="Shape"></path>
                                    <path d="M11.6,4.848 C13.0640877,3.38573311 15.4359123,3.38573311 16.9,4.848" id="Shape" stroke-width="1.5"></path>
                                    <path d="M9.476,2.727 C10.7418729,1.46111157 12.4587744,0.749941546 14.249,0.749941546 C16.0392256,0.749941546 17.7561271,1.46111157 19.022,2.727" id="Shape" stroke-width="1.5"></path>
                                    <path d="M3.749,23.25 L3.749,20.25" id="Shape" stroke-width="1.5"></path>
                                </g>
                            </g>
                        </g>
                    </g>
                </g>
            </g>
        </g>
    </g>
</svg>