<?xml version="1.0" encoding="utf-8"?>
<!-- Generator: Adobe Illustrator 22.1.0, SVG Export Plug-In . SVG Version: 6.00 Build 0)  -->
<svg version="1.1" id="Слой_1" xmlns="http://www.w3.org/2000/svg" xmlns:xlink="http://www.w3.org/1999/xlink" x="0px" y="0px"
	 viewBox="0 0 22 24" style="enable-background:new 0 0 22 24;" xml:space="preserve">
<style type="text/css">
	.st0{fill:none;stroke:#303A44;stroke-width:1.5;stroke-linecap:round;stroke-linejoin:round;}
</style>
<title>10A05665-5FE3-444B-93BE-64673E6CF987</title>
<desc>Created with sketchtool.</desc>
<g>
	<path id="Shape" class="st0" d="M10,11.9l4.2-4.2"/>
	<polygon id="Shape_1_" class="st0" points="14.2,7.7 14.8,3.9 18,0.8 18.5,3.4 21.1,3.9 17.9,7.1 	"/>
	<path id="Shape_2_" class="st0" d="M20.1,9.5c1.1,4.1-0.6,8.5-4.2,10.7s-8.3,1.9-11.5-0.8S0,12.1,1.7,8.2s5.7-6.3,10-5.9"/>
	<path id="Shape_3_" class="st0" d="M15.7,10.7c0.5,2.2-0.4,4.5-2.2,5.7c-1.9,1.2-4.3,1.1-6.1-0.3s-2.5-3.7-1.7-5.8s2.7-3.5,5-3.5"
		/>
	<path id="Shape_4_" class="st0" d="M5.5,20.3l-0.8,3"/>
	<path id="Shape_5_" class="st0" d="M16,20.3l0.8,3"/>
</g>
</svg>
