<?xml version="1.0" encoding="UTF-8"?>
<svg width="24px" height="24px" viewBox="0 0 24 24" version="1.1" xmlns="http://www.w3.org/2000/svg" xmlns:xlink="http://www.w3.org/1999/xlink">
    <!-- Generator: sketchtool 52.2 (67145) - http://www.bohemiancoding.com/sketch -->
    <title>88C1B978-7585-48AB-A53D-1EFA8ABCA6D6</title>
    <desc>Created with sketchtool.</desc>
    <g id="Landing-Pages" stroke="none" stroke-width="1" fill="none" fill-rule="evenodd" stroke-linecap="round" stroke-linejoin="round">
        <g id="LP---Branding" transform="translate(-1068.000000, -1849.000000)" stroke="#303A44" stroke-width="1.5">
            <g id="section-3---how" transform="translate(-360.000000, 768.000000)">
                <g id="Features-how" transform="translate(1090.000000, 895.000000)">
                    <g id="Group-3-Copy-2" transform="translate(240.000000, 171.000000)">
                        <g id="how-software-4" transform="translate(83.000000, 0.000000)">
                            <g id="icon-software-4" transform="translate(15.000000, 15.000000)">
                                <g id="Group">
                                    <g id="Regular">
                                        <path d="M11.249,0.75 L11.249,19.5" id="Shape"></path>
                                        <path d="M11.249,2.25 L22.5,2.25 C22.7909299,2.25010906 23.0555507,2.41845785 23.1789324,2.68192922 C23.3023141,2.9454006 23.2621952,3.25645677 23.076,3.48 L19.676,6.27 C19.4439722,6.54793991 19.4439722,6.95206009 19.676,7.23 L23.076,10.02 C23.2621952,10.2435432 23.3023141,10.5545994 23.1789324,10.8180708 C23.0555507,11.0815421 22.7909299,11.2498909 22.5,11.25 L11.249,11.25" id="Shape"></path>
                                        <path d="M14.239,15.9 C18.582,16.36 21.749,17.8 21.749,19.5 C21.749,21.571 17.049,23.25 11.249,23.25 C5.449,23.25 0.749,21.571 0.749,19.5 C0.749,17.831 3.803,16.416 8.025,15.93" id="Shape"></path>
                                    </g>
                                </g>
                            </g>
                        </g>
                    </g>
                </g>
            </g>
        </g>
    </g>
</svg>