<?xml version="1.0" encoding="UTF-8"?>
<svg width="22px" height="24px" viewBox="0 0 22 24" version="1.1" xmlns="http://www.w3.org/2000/svg" xmlns:xlink="http://www.w3.org/1999/xlink">
    <!-- Generator: sketchtool 52.2 (67145) - http://www.bohemiancoding.com/sketch -->
    <title>10A05665-5FE3-444B-93BE-64673E6CF987</title>
    <desc>Created with sketchtool.</desc>
    <g id="Landing-Pages" stroke="none" stroke-width="1" fill="none" fill-rule="evenodd" stroke-linecap="round" stroke-linejoin="round">
        <g id="LP---Branding" transform="translate(-829.000000, -1678.000000)" stroke="#303A44" stroke-width="1.5">
            <g id="section-3---how" transform="translate(-360.000000, 768.000000)">
                <g id="Features-how" transform="translate(1090.000000, 895.000000)">
                    <g id="Group-3">
                        <g id="how-branding-1" transform="translate(83.000000, 0.000000)">
                            <g id="icon-branding-1" transform="translate(16.000000, 15.000000)">
                                <g id="Group">
                                    <g id="Regular">
                                        <path d="M10.015,11.859 L14.182,7.692" id="Shape"></path>
                                        <polygon id="Shape" points="14.182 7.692 14.75 3.942 17.998 0.75 18.5 3.374 21.124 3.876 17.932 7.124"></polygon>
                                        <path d="M20.054,9.513 C21.1417659,13.6364568 19.4235327,17.9883789 15.8122187,20.2565371 C12.2009047,22.5246954 7.53457775,22.1827243 4.29251418,19.4123175 C1.05045061,16.6419106 -0.0149726556,12.0859886 1.66231673,8.16516848 C3.33960612,4.24434831 7.37036415,1.86852402 11.613,2.3" id="Shape"></path>
                                        <path d="M15.721,10.737 C16.2602594,12.9113598 15.3606657,15.1883884 13.4809096,16.4070592 C11.6011536,17.6257299 9.15525031,17.5176314 7.39033339,16.1378817 C5.62541647,14.7581319 4.93020767,12.4106198 5.65918475,10.2923107 C6.38816183,8.17400157 8.38076809,6.75145154 10.621,6.75" id="Shape"></path>
                                        <path d="M5.515,20.25 L4.765,23.25" id="Shape"></path>
                                        <path d="M16.015,20.25 L16.765,23.25" id="Shape"></path>
                                    </g>
                                </g>
                            </g>
                        </g>
                    </g>
                </g>
            </g>
        </g>
    </g>
</svg>