<?xml version="1.0" encoding="UTF-8"?>
<svg width="28px" height="25px" viewBox="0 0 28 25" version="1.1" xmlns="http://www.w3.org/2000/svg" xmlns:xlink="http://www.w3.org/1999/xlink">
    <!-- Generator: sketchtool 52.2 (67145) - http://www.bohemiancoding.com/sketch -->
    <title>A3FA4FD1-A586-4C87-B03F-39C4D2B6CF66</title>
    <desc>Created with sketchtool.</desc>
    <g id="Landing-Pages" stroke="none" stroke-width="1" fill="none" fill-rule="evenodd" stroke-linecap="round" stroke-linejoin="round">
        <g id="LP---Software-development" transform="translate(-1066.000000, -1678.000000)" stroke="#303A44" stroke-width="1.5">
            <g id="section-3---how" transform="translate(-360.000000, 768.000000)">
                <g id="Features-how" transform="translate(1090.000000, 896.000000)">
                    <g id="Group-3-Copy" transform="translate(240.000000, 0.000000)">
                        <g id="how-software-2" transform="translate(83.000000, 0.000000)">
                            <g id="icon-software-2" transform="translate(9.000000, 13.000000)">
                                <g id="arrow" transform="translate(20.416751, 17.348916) rotate(-223.000000) translate(-20.416751, -17.348916) translate(12.859933, 4.548916)">
                                    <path d="M6.76136364,25.6 C10.9348791,25.6 14.4512229,22.9311486 14.3181818,18 M7.85305738,7.7960795 C7.08231188,7.02913786 5.77117942,5.81790786 3.91965997,4.16238949" id="Oval"></path>
                                    <path d="M1.04483174,2.25680584 C2.20090949,2.82040002 3.11005445,4.42040002 3.77226661,7.05680584 C4.35185108,5.62780038 5.59949164,4.59512713 7.51518828,3.9587861" id="Path-2" transform="translate(4.280010, 4.656806) rotate(122.000000) translate(-4.280010, -4.656806) "></path>
                                </g>
                                <g id="arrow-copy" transform="translate(13.976567, 12.865688) rotate(-285.000000) translate(-13.976567, -12.865688) translate(4.476567, 1.365688)">
                                    <path d="M15.2440536,22.5862495 C17.2783209,15.3936592 18.2954545,10.3982427 18.2954545,7.6 C18.2954545,3.4026359 14.9121518,-1.13686838e-13 10.7386364,-1.13686838e-13 C6.56512092,-1.13686838e-13 3.18181818,3.4026359 3.18181818,7.6" id="Oval"></path>
                                    <path d="M0.112994687,4 C1.26907244,4.56359417 2.1782174,6.16359417 2.84042956,8.8 C3.42001403,7.37099454 4.66765459,6.33832129 6.58335123,5.70198026" id="Path-2"></path>
                                </g>
                            </g>
                        </g>
                    </g>
                </g>
            </g>
        </g>
    </g>
</svg>