<?xml version="1.0" encoding="UTF-8"?>
<svg width="24px" height="24px" viewBox="0 0 24 24" version="1.1" xmlns="http://www.w3.org/2000/svg" xmlns:xlink="http://www.w3.org/1999/xlink">
    <!-- Generator: sketchtool 52.2 (67145) - http://www.bohemiancoding.com/sketch -->
    <title>2E4274DE-D104-4571-A29C-7EDB12D1848F</title>
    <desc>Created with sketchtool.</desc>
    <g id="Landing-Pages" stroke="none" stroke-width="1" fill="none" fill-rule="evenodd" stroke-linecap="round" stroke-linejoin="round">
        <g id="LP---UX-UI-design" transform="translate(-1068.000000, -1679.000000)" stroke="#303A44" stroke-width="1.5">
            <g id="section-3---how" transform="translate(-360.000000, 768.000000)">
                <g id="Group-4" transform="translate(1090.000000, 896.000000)">
                    <g id="Group-3-Copy" transform="translate(240.000000, 0.000000)">
                        <g id="how-uxui-2" transform="translate(83.000000, 0.000000)">
                            <g id="icon-uxui-2" transform="translate(15.000000, 16.000000)">
                                <g id="Regular">
                                    <circle id="Oval" cx="5.249" cy="17" r="4.5"></circle>
                                    <path d="M9.74900284,17 L9.749,3.125 C9.75091927,1.81027096 8.77992295,0.696901157 7.47714404,0.520030475 C6.17436513,0.343159793 4.94167551,1.15734803 4.593,2.425 L0.911,15.806" id="Shape"></path>
                                    <circle id="Oval" cx="18.749" cy="17" r="4.5"></circle>
                                    <path d="M14.2489972,17 L14.249,3.125 C14.2470807,1.81027096 15.2180771,0.696901157 16.520856,0.520030475 C17.8236349,0.343159793 19.0563245,1.15734803 19.405,2.425 L23.088,15.802" id="Shape"></path>
                                    <rect id="Rectangle-path" x="9.749" y="8" width="4.5" height="3"></rect>
                                </g>
                            </g>
                        </g>
                    </g>
                </g>
            </g>
        </g>
    </g>
</svg>