<?xml version="1.0" encoding="UTF-8"?>
<svg width="24px" height="24px" viewBox="0 0 24 24" version="1.1" xmlns="http://www.w3.org/2000/svg" xmlns:xlink="http://www.w3.org/1999/xlink">
    <!-- Generator: sketchtool 52.2 (67145) - http://www.bohemiancoding.com/sketch -->
    <title>33CCFA81-BE00-47A6-8B5F-0736A0290E0F</title>
    <desc>Created with sketchtool.</desc>
    <g id="Landing-Pages" stroke="none" stroke-width="1" fill="none" fill-rule="evenodd" stroke-linecap="round" stroke-linejoin="round">
        <g id="LP---Software-development" transform="translate(-828.000000, -1850.000000)" stroke="#303A44" stroke-width="1.5">
            <g id="section-3---how" transform="translate(-360.000000, 768.000000)">
                <g id="Features-how" transform="translate(1090.000000, 896.000000)">
                    <g id="Group-3-Copy-3" transform="translate(0.000000, 171.000000)">
                        <g id="how-software-3" transform="translate(83.000000, 0.000000)">
                            <g id="icon-software-3" transform="translate(15.000000, 15.000000)">
                                <g id="Regular">
                                    <path d="M23.249,0.75 L8.999,11.25" id="Shape"></path>
                                    <path d="M6.749,2.25 L9.749,2.25" id="Shape"></path>
                                    <path d="M8.249,0.75 L8.249,3.75" id="Shape"></path>
                                    <path d="M1.499,8.25 L5.999,8.25" id="Shape"></path>
                                    <path d="M3.749,6 L3.749,10.5" id="Shape"></path>
                                    <path d="M18.651,23.25 C18.408,21.581 18.202,19.594 18.09,17.28" id="Shape"></path>
                                    <path d="M5.908,17.28 C5.797,19.595 5.59,21.58 5.347,23.25" id="Shape"></path>
                                    <path d="M17.249,9.519 C20.818,10.274 23.249,11.773 23.249,13.5 C23.249,15.985 18.212,18 11.999,18 C5.786,18 0.749,15.985 0.749,13.5 C0.749900452,13.242039 0.802964201,12.9869248 0.905,12.75" id="Shape"></path>
                                    <path d="M12.749,12.009 C16.124,12.092 18.749,12.728 18.749,13.5 C18.749,14.328 15.727,15 11.999,15 C8.271,15 5.249,14.328 5.249,13.5" id="Shape"></path>
                                </g>
                            </g>
                        </g>
                    </g>
                </g>
            </g>
        </g>
    </g>
</svg>