<?xml version="1.0" encoding="UTF-8"?>
<svg width="24px" height="18px" viewBox="0 0 24 18" version="1.1" xmlns="http://www.w3.org/2000/svg" xmlns:xlink="http://www.w3.org/1999/xlink">
    <!-- Generator: sketchtool 52.2 (67145) - http://www.bohemiancoding.com/sketch -->
    <title>CEDCCFC9-D422-41E8-B763-B6E142B473D7</title>
    <desc>Created with sketchtool.</desc>
    <g id="Landing-Pages" stroke="none" stroke-width="1" fill="none" fill-rule="evenodd" stroke-linecap="round" stroke-linejoin="round">
        <g id="LP---UX-UI-design" transform="translate(-1068.000000, -1853.000000)" stroke="#303A44" stroke-width="1.5">
            <g id="section-3---how" transform="translate(-360.000000, 768.000000)">
                <g id="Group-4" transform="translate(1090.000000, 896.000000)">
                    <g id="Group-3-Copy-2" transform="translate(240.000000, 171.000000)">
                        <g id="how-uxui-4" transform="translate(83.000000, 0.000000)">
                            <g id="icon-uxui-4" transform="translate(15.000000, 18.000000)">
                                <g id="Regular">
                                    <path d="M8.249,9.024 C10.3741069,10.9602157 13.6238931,10.9602157 15.749,9.024" id="Shape"></path>
                                    <path d="M9.749,4.5 L9.749,6" id="Shape"></path>
                                    <path d="M14.249,4.5 L14.249,6" id="Shape"></path>
                                    <path d="M3,10.5 L3,2.25 C3,1.42157288 3.67157288,0.75 4.5,0.75 L19.5,0.75 C20.3284271,0.75 21,1.42157288 21,2.25 L21,10.5" id="Shape"></path>
                                    <path d="M0.749,13.5 C0.748999965,14.4947351 1.14422538,15.4487139 1.8477031,16.152004 C2.55118082,16.8552942 3.50526491,17.2502653 4.5,17.25 L19.5,17.25 C21.5710678,17.25 23.25,15.5710678 23.25,13.5 L0.749,13.5 Z" id="Shape"></path>
                                </g>
                            </g>
                        </g>
                    </g>
                </g>
            </g>
        </g>
    </g>
</svg>