<?xml version="1.0" encoding="UTF-8"?>
<svg width="24px" height="24px" viewBox="0 0 24 24" version="1.1" xmlns="http://www.w3.org/2000/svg" xmlns:xlink="http://www.w3.org/1999/xlink">
    <!-- Generator: sketchtool 52.2 (67145) - http://www.bohemiancoding.com/sketch -->
    <title>43B0AD7D-4D70-40AA-BDE2-0720BDBC14C9</title>
    <desc>Created with sketchtool.</desc>
    <g id="Landing-Pages" stroke="none" stroke-width="1" fill="none" fill-rule="evenodd" stroke-linecap="round" stroke-linejoin="round">
        <g id="LP---UX-UI-design" transform="translate(-828.000000, -1679.000000)" stroke="#303A44" stroke-width="1.5">
            <g id="section-3---how" transform="translate(-360.000000, 768.000000)">
                <g id="Group-4" transform="translate(1090.000000, 896.000000)">
                    <g id="Group-3">
                        <g id="how-uxui-1" transform="translate(83.000000, 0.000000)">
                            <g id="icon-uxui-1" transform="translate(15.000000, 15.000000)">
                                <g id="Regular">
                                    <path d="M0.749,23.243 C0.752284867,22.1715622 0.973787912,21.1120223 1.4,20.129 C1.87,19.209 3.831,18.571 6.294,17.678 C6.96,17.437 6.85,15.735 6.555,15.417 C5.60916299,14.4172261 5.14268283,13.056811 5.276,11.687 C5.14205471,10.0005982 6.34386988,8.50128669 8.019,8.265" id="Shape"></path>
                                    <path d="M11.4,13.094 C11.2660323,13.9727566 10.8563228,14.7862225 10.23,15.417 C9.935,15.735 9.83,17.437 10.492,17.678 C12.954,18.571 14.916,19.209 15.385,20.129 C15.812733,21.1121068 16.0391884,22.170939 16.051,23.243" id="Shape"></path>
                                    <path d="M19.367,23.243 L21.735,23.243 L21.735,22.426 C21.735,19.532 19.735,19.065 17.728,18.326 C17.063,18.079 17.172,16.342 17.467,16.018 C18.1388379,15.324278 18.5609759,14.4268829 18.667,13.467" id="Shape"></path>
                                    <circle id="Oval" cx="15.749" cy="6.007" r="5.25"></circle>
                                    <path d="M23.249,13.507 L19.461,9.719" id="Shape"></path>
                                </g>
                            </g>
                        </g>
                    </g>
                </g>
            </g>
        </g>
    </g>
</svg>