<?xml version="1.0" encoding="UTF-8"?>
<svg width="25px" height="24px" viewBox="0 0 25 24" version="1.1" xmlns="http://www.w3.org/2000/svg" xmlns:xlink="http://www.w3.org/1999/xlink">
    <!-- Generator: sketchtool 52.2 (67145) - http://www.bohemiancoding.com/sketch -->
    <title>3500BC5A-E20E-428E-9FAB-18C1E01150FF</title>
    <desc>Created with sketchtool.</desc>
    <g id="Landing-Pages" stroke="none" stroke-width="1" fill="none" fill-rule="evenodd" stroke-linecap="round" stroke-linejoin="round">
        <g id="LP---Software-development" transform="translate(-827.000000, -1679.000000)" stroke="#303A44" stroke-width="1.5">
            <g id="section-3---how" transform="translate(-360.000000, 768.000000)">
                <g id="Features-how" transform="translate(1090.000000, 896.000000)">
                    <g id="Group-3">
                        <g id="how-software-1" transform="translate(83.000000, 0.000000)">
                            <g id="icon-software-1" transform="translate(15.000000, 15.000000)">
                                <g id="Regular">
                                    <path d="M0.749,23.25 L0.749,0.75" id="Shape"></path>
                                    <path d="M0.749,18.37 L3.9,17.4 C6.54349439,16.5868917 9.40909218,16.9512398 11.765,18.4 C14.0627168,19.8139374 16.8488835,20.1971351 19.443,19.456 L22.43,18.603 C22.9128895,18.4647112 23.2457832,18.0233007 23.246,17.521 L23.246,4.648 C23.2460841,4.29494954 23.0804284,3.96233657 22.7986024,3.74968961 C22.5167764,3.53704264 22.151472,3.46902879 21.812,3.566 L19.443,4.243 C16.8488835,4.98413514 14.0627168,4.60093743 11.765,3.187 C9.4092693,1.73773747 6.54344863,1.37336104 3.9,2.187 L0.746,3.157 L0.749,18.37 Z" id="Shape"></path>
                                    <polyline id="Shape" points="15.423 7.598 18.358 10.533 15.423 13.467"></polyline>
                                    <polyline id="Shape" points="8.575 7.598 5.641 10.533 8.575 13.467"></polyline>
                                    <path d="M12.977,7.598 L11.021,13.467" id="Shape"></path>
                                </g>
                            </g>
                        </g>
                    </g>
                </g>
            </g>
        </g>
    </g>
</svg>