<?xml version="1.0" encoding="UTF-8"?>
<svg width="24px" height="24px" viewBox="0 0 24 24" version="1.1" xmlns="http://www.w3.org/2000/svg" xmlns:xlink="http://www.w3.org/1999/xlink">
    <!-- Generator: sketchtool 52.2 (67145) - http://www.bohemiancoding.com/sketch -->
    <title>4571FD3D-2770-417D-B523-6FE44EF5C6CF</title>
    <desc>Created with sketchtool.</desc>
    <g id="Landing-Pages" stroke="none" stroke-width="1" fill="none" fill-rule="evenodd" stroke-linecap="round" stroke-linejoin="round">
        <g id="LP---Branding" transform="translate(-828.000000, -1849.000000)" stroke="#303A44">
            <g id="section-3---how" transform="translate(-360.000000, 768.000000)">
                <g id="Features-how" transform="translate(1090.000000, 895.000000)">
                    <g id="Group-3-Copy-3" transform="translate(0.000000, 171.000000)">
                        <g id="how-software-3" transform="translate(83.000000, 0.000000)">
                            <g id="icon-branding-3" transform="translate(15.000000, 15.000000)">
                                <g id="Group">
                                    <g id="Regular">
                                        <path d="M12.749,0.75 C8.93832847,0.744505526 5.42468259,2.8069362 3.57179712,6.13681054 C1.71891166,9.46668489 1.81853469,13.539694 3.832,16.775 L0.749,23.25 L7.224,20.167 C11.010282,22.521088 15.8703784,22.2273865 19.3456211,19.4344758 C22.8208638,16.6415652 24.153405,11.9584966 22.6691273,7.75438181 C21.1848495,3.55026704 17.2074298,0.741899193 12.749,0.75 Z" id="Shape" stroke-width="1.5"></path>
                                        <path d="M15.749,13.5 C15.749,15.1568542 14.4058542,16.4999999 12.749,16.4999999 C11.0921458,16.4999999 9.74900003,15.1568542 9.749,13.5 L15.749,13.5 Z" id="Shape" stroke-width="1.5"></path>
                                        <path d="M8.124,9.375 C7.84785763,9.375 7.624,9.59885763 7.624,9.875 C7.624,10.1511424 7.84785763,10.375 8.124,10.375 C8.40014237,10.375 8.624,10.1511424 8.624,9.875 C8.624,9.59885763 8.40014237,9.375 8.124,9.375" id="Shape"></path>
                                        <path d="M17.124,9.375 C16.8478576,9.375 16.624,9.59885763 16.624,9.875 C16.624,10.1511424 16.8478576,10.375 17.124,10.375 C17.4001424,10.375 17.624,10.1511424 17.624,9.875 C17.624,9.59885763 17.4001424,9.375 17.124,9.375" id="Shape"></path>
                                    </g>
                                </g>
                            </g>
                        </g>
                    </g>
                </g>
            </g>
        </g>
    </g>
</svg>