<?xml version="1.0" encoding="UTF-8"?>
<svg width="24px" height="24px" viewBox="0 0 24 24" version="1.1" xmlns="http://www.w3.org/2000/svg" xmlns:xlink="http://www.w3.org/1999/xlink">
    <!-- Generator: sketchtool 52.2 (67145) - http://www.bohemiancoding.com/sketch -->
    <title>DBF30172-BF3C-4F53-B172-9E74087C868F</title>
    <desc>Created with sketchtool.</desc>
    <g id="Landing-Pages" stroke="none" stroke-width="1" fill="none" fill-rule="evenodd" stroke-linecap="round" stroke-linejoin="round">
        <g id="LP---Software-development" transform="translate(-1068.000000, -1850.000000)" stroke="#303A44" stroke-width="1.5">
            <g id="section-3---how" transform="translate(-360.000000, 768.000000)">
                <g id="Features-how" transform="translate(1090.000000, 896.000000)">
                    <g id="Group-3-Copy-2" transform="translate(240.000000, 171.000000)">
                        <g id="how-software-4" transform="translate(83.000000, 0.000000)">
                            <g id="icon-software-4" transform="translate(15.000000, 15.000000)">
                                <g id="Regular">
                                    <path d="M13.5,22.5 L10.57,20.156 C10.0682593,19.7571081 9.84548745,19.1020807 10,18.48 C10.120405,17.9980958 10.4531034,17.5969266 10.9044159,17.3894512 C11.3557284,17.1819758 11.876833,17.1906384 12.321,17.413 L13.5,18 L13.5,12.75 C13.5,11.9215729 14.1715729,11.25 15,11.25 C15.8284271,11.25 16.5,11.9215729 16.5,12.75 L16.5,15.75 L18.493,16.082 C19.9395744,16.3229968 20.9998951,17.5744882 21,19.041 L21,22.5" id="Shape"></path>
                                    <path d="M5.249,6 L12.749,6" id="Shape"></path>
                                    <path d="M5.249,9 L12.749,9" id="Shape"></path>
                                    <path d="M5.249,12 L8.999,12" id="Shape"></path>
                                    <path d="M7.5,18 L2.249,18 C1.42057288,18 0.749,17.3284271 0.749,16.5 L0.749,3 C0.749,2.17157288 1.42057288,1.5 2.249,1.5 L21.749,1.5 C22.5774271,1.5 23.249,2.17157288 23.249,3 L23.249,15" id="Shape"></path>
                                    <path d="M18.749,1.5 L18.749,10.5" id="Shape"></path>
                                </g>
                            </g>
                        </g>
                    </g>
                </g>
            </g>
        </g>
    </g>
</svg>