<?xml version="1.0" encoding="UTF-8"?>
<svg width="24px" height="24px" viewBox="0 0 24 24" version="1.1" xmlns="http://www.w3.org/2000/svg" xmlns:xlink="http://www.w3.org/1999/xlink">
    <!-- Generator: sketchtool 52.2 (67145) - http://www.bohemiancoding.com/sketch -->
    <title>A91BEF99-CAF2-4028-B5CA-EEF03DADBD9E</title>
    <desc>Created with sketchtool.</desc>
    <g id="Landing-Pages" stroke="none" stroke-width="1" fill="none" fill-rule="evenodd" stroke-linecap="round" stroke-linejoin="round">
        <g id="LP---UX-UI-design" transform="translate(-828.000000, -1850.000000)" stroke="#303A44">
            <g id="section-3---how" transform="translate(-360.000000, 768.000000)">
                <g id="Group-4" transform="translate(1090.000000, 896.000000)">
                    <g id="Group-3-Copy-3" transform="translate(0.000000, 171.000000)">
                        <g id="how-uxui-3" transform="translate(83.000000, 0.000000)">
                            <g id="icon-uxui-3" transform="translate(15.000000, 15.000000)">
                                <g id="Regular">
                                    <rect id="Rectangle-path" stroke-width="1.5" x="3.749" y="0.75" width="19.5" height="19.5" rx="1.5"></rect>
                                    <path d="M20.249,23.25 L2.249,23.25 C1.42057288,23.25 0.749,22.5784271 0.749,21.75 L0.749,3.75" id="Shape" stroke-width="1.5"></path>
                                    <path d="M8.623,6.625 C8.34685763,6.625 8.123,6.84885763 8.123,7.125 C8.123,7.40114237 8.34685763,7.625 8.623,7.625 C8.89914237,7.625 9.123,7.40114237 9.123,7.125 C9.123,6.84885763 8.89914237,6.625 8.623,6.625" id="Shape"></path>
                                    <path d="M20.249,15.75 L16.38,9.913 C16.2424315,9.70675773 16.0118335,9.58182167 15.7639339,9.57922063 C15.5160344,9.57661958 15.2828656,9.69668965 15.141,9.9 L13.146,12.75 L11.91,11.761 C11.7458977,11.6292673 11.5339491,11.5726444 11.3260138,11.6049857 C11.1180785,11.6373269 10.9333399,11.7556487 10.817,11.931 L8.271,15.75 L20.249,15.75 Z" id="Shape" stroke-width="1.5"></path>
                                </g>
                            </g>
                        </g>
                    </g>
                </g>
            </g>
        </g>
    </g>
</svg>