<?xml version="1.0" encoding="UTF-8"?>
<svg width="127px" height="109px" viewBox="0 0 127 109" version="1.1" xmlns="http://www.w3.org/2000/svg" xmlns:xlink="http://www.w3.org/1999/xlink">
    <!-- Generator: sketchtool 52.2 (67145) - http://www.bohemiancoding.com/sketch -->
    <title>C6DEF066-6AA0-4B25-B9CD-7392B24D67B8</title>
    <desc>Created with sketchtool.</desc>
    <g id="Landing-Pages" stroke="none" stroke-width="1" fill="none" fill-rule="evenodd">
        <g id="LP---Branding" transform="translate(-354.000000, -2664.000000)">
            <g id="section-3---who" transform="translate(0.000000, 2382.000000)">
                <g id="talented" transform="translate(278.000000, 242.000000)">
                    <g id="services-who1-branding" transform="translate(72.000000, 40.000000)">
                        <path d="M61.7024,85.9456803 L78.2904,85.9456803 L92.6324,67.1603248 C95.5924,63.2841456 97.1504,58.8020982 97.1504,54.1754686 C97.1504,41.2319215 84.9144,30.7015197 69.8764,30.7015197 C54.8364,30.7015197 42.6024,41.2319215 42.6024,54.1754686 C42.6024,59.6971307 44.7524,64.8642222 48.8244,69.1156266 L49.0384,69.3755303 L61.7024,85.9456803 Z M80.9864,90.247 L59.0084,90.247 L44.8684,71.743924 C40.1504,66.8178028 37.6044,60.7057635 37.6044,54.1754686 C37.6044,38.8618065 52.0804,26.4002 69.8764,26.4002 C87.6704,26.4002 102.1464,38.8618065 102.1464,54.1754686 C102.1464,59.6454942 100.3064,64.9433982 96.8244,69.4994579 L96.6284,69.762804 L80.9864,90.247 Z" id="Fill-2" fill="#303A44"></path>
                        <polygon id="Fill-11-Copy" fill="#FF539E" fill-rule="nonzero" points="55.5919706 109 73.6566 109 73.6566 98.3548 55.5919706 98.3548"></polygon>
                        <path d="M59.5106,93.8008 L80.8106,93.8008 L80.8106,90.2448 L59.5106,90.2448 L59.5106,93.8008 Z M54.5146,98.7988 L85.8066,98.7988 L85.8066,85.2488 L54.5146,85.2488 L54.5146,98.7988 Z" id="Fill-8" fill="#303A44"></path>
                        <path d="M63.6606,101.9088 L76.6606,101.9088 L76.6606,98.3508 L63.6606,98.3508 L63.6606,101.9088 Z M58.6626,106.9048 L81.6566,106.9048 L81.6566,93.3548 L58.6626,93.3548 L58.6626,106.9048 Z" id="Fill-11" fill="#303A44"></path>
                        <polygon id="Fill-12" fill="#303A44" points="66.61 11.2408 71.606 11.2408 71.606 0.3768 66.61 0.3768"></polygon>
                        <polygon id="Fill-13" fill="#303A44" points="32.682 27.214 25 19.532 28.532 16 36.216 23.682"></polygon>
                        <polygon id="Fill-14" fill="#303A44" points="114.1038 101.3456 106.4218 93.6636 109.9538 90.1316 117.6378 97.8116"></polygon>
                        <polygon id="Fill-16" fill="#303A44" points="26.3422 101.3456 22.8102 97.8116 30.4922 90.1316 34.0242 93.6636"></polygon>
                        <polygon id="Fill-17" fill="#303A44" transform="translate(124.297861, 64.410210) rotate(14.000000) translate(-124.297861, -64.410210) " points="118.865861 66.90921 129.729861 66.90921 129.729861 61.91121 118.865861 61.91121"></polygon>
                        <polygon id="Fill-19" fill="#303A44" points="73.4906 75.2108 67.3626 55.9868 61.4606 69.0248 56.3146 60.3488 51.7466 60.3488 51.7466 55.3528 59.1606 55.3528 60.8646 58.2248 68.1726 42.0788 74.3686 61.5108 77.5586 54.6728 88.0046 54.6728 88.0046 59.6708 80.7406 59.6708"></polygon>
                        <polygon id="Fill-41" fill="#FF539E" fill-rule="nonzero" points="111.4 30.266 102 25.874 104.114 21.346 107.9 23.116 109.514 16.02 116.116 19.096 117.73 12 122.370378 13.1531809 121.228 19.144 119.616 26.24 113.014 23.164"></polygon>
                        <polygon id="Fill-42" fill="#FF539E" fill-rule="nonzero" transform="translate(12.650631, 62.328438) rotate(-41.000000) translate(-12.650631, -62.328438) " points="18.4426308 69.5484381 16.9986308 65.6004381 10.8206308 69.4724381 8.32663085 62.6344381 2.16463085 66.5104381 4.74063085 58.9864381 10.8986308 55.1084381 13.3986308 61.9584381 19.5726308 58.0884381 23.1366308 67.8344381"></polygon>
                    </g>
                </g>
            </g>
        </g>
    </g>
</svg>