<?xml version="1.0" encoding="UTF-8"?>
<svg width="110px" height="103px" viewBox="0 0 110 103" version="1.1" xmlns="http://www.w3.org/2000/svg" xmlns:xlink="http://www.w3.org/1999/xlink">
    <!-- Generator: sketchtool 52.2 (67145) - http://www.bohemiancoding.com/sketch -->
    <title>AB017A06-278D-4BDF-9718-0DC3A2540AE4</title>
    <desc>Created with sketchtool.</desc>
    <g id="Landing-Pages" stroke="none" stroke-width="1" fill="none" fill-rule="evenodd">
        <g id="LP---Branding" transform="translate(-694.000000, -2664.000000)">
            <g id="section-3---who" transform="translate(0.000000, 2382.000000)">
                <g id="passionate" transform="translate(605.000000, 242.000000)">
                    <g id="services-who2-branding" transform="translate(89.000000, 40.000000)">
                        <path d="M47.0888,37.0278 L47.0808,37.0278 C44.8288,37.0298 42.7128,37.9058 41.1248,39.4938 C37.8428,42.7778 37.8448,48.1298 41.1308,51.4278 L54.8208,65.1198 L68.5188,51.4258 C71.8028,48.1298 71.8048,42.7778 68.5208,39.4938 C66.9328,37.9058 64.8148,37.0298 62.5648,37.0278 L62.5588,37.0278 C60.3068,37.0278 58.1948,37.9038 56.6028,39.4938 L54.8348,41.2598 L53.0548,39.5058 C51.4568,37.9038 49.3388,37.0278 47.0888,37.0278 M54.8208,72.1638 L37.5948,54.9578 C32.3628,49.7098 32.3648,41.1898 37.5948,35.9598 C40.1228,33.4278 43.4908,32.0338 47.0768,32.0298 L47.0888,32.0298 C49.8928,32.0298 52.5688,32.8858 54.8128,34.4718 C57.0208,32.9058 59.7228,32.0298 62.5588,32.0298 L62.5648,32.0298 C66.1528,32.0338 69.5228,33.4278 72.0508,35.9598 C77.2868,41.1898 77.2868,49.7118 72.0548,54.9558 L72.0508,54.9578 L54.9508,72.0618 L54.9388,72.0498 L54.8208,72.1638" id="Fill-21" fill="#303A44"></path>
                        <polygon id="Fill-25" fill="#303A44" points="52.326 13.058 57.324 13.058 57.324 0 52.326 0"></polygon>
                        <polygon id="Fill-26" fill="#303A44" points="0 55.998 13.058 55.998 13.058 51 0 51"></polygon>
                        <polygon id="Fill-27" fill="#303A44" points="96 55.998 109.058 55.998 109.058 51 96 51"></polygon>
                        <polygon id="Fill-28" fill="#303A44" points="25.232 27.766 16 18.534 19.53 15 28.768 24.232"></polygon>
                        <polygon id="Fill-29" fill="#303A44" points="88.232 89.766 79 80.534 82.53 77 91.768 86.232"></polygon>
                        <path d="M57.0326656,102.566944 C56.0521167,102.542448 55.3148949,102.5302 54.821,102.5302 L52.323,102.5302 L52.323,91.9962 L57.321,91.9962 L57.0326656,102.566944 Z" id="Path" fill="#303A44" fill-rule="nonzero"></path>
                        <polygon id="Fill-30" fill="#303A44" points="19.534 89.766 16 86.232 25.238 77 28.768 80.534"></polygon>
                        <polygon id="Fill-31" fill="#303A44" points="85.534 27.766 82 24.232 91.238 15 94.768 18.534"></polygon>
                        <path d="M51.4052,79.6704 L51.3892,79.6584 L51.3772,79.6704 L35.0572,63.3504 C30.9492,59.2284 30.5872,52.7984 33.9672,48.2784 C34.4892,50.7264 35.6972,53.0564 37.5952,54.9584 L54.8232,72.1644 L54.9372,72.0484 L54.9472,72.0604 L71.0812,55.9284 C70.9072,58.6284 69.7872,61.2804 67.7232,63.3504 L51.4052,79.6704 M54.8232,65.1204 L41.1272,51.4264 C39.2592,49.5484 38.4512,47.0044 38.7112,44.5544 C40.1472,43.9464 41.6852,43.6404 43.2192,43.6404 C46.1732,43.6404 49.1252,44.7644 51.3772,47.0184 L51.3892,47.0304 L51.4052,47.0184 C53.6592,44.7644 56.6112,43.6404 59.5612,43.6404 C62.5192,43.6404 65.4732,44.7684 67.7232,47.0184 C68.5672,47.8624 69.2552,48.8044 69.7812,49.8064 C69.4352,50.3844 69.0152,50.9284 68.5192,51.4264 L54.8232,65.1204" id="Fill-74" fill="#FF539E" fill-rule="nonzero"></path>
                    </g>
                </g>
            </g>
        </g>
    </g>
</svg>