<?xml version="1.0" encoding="UTF-8"?>
<svg width="123px" height="75px" viewBox="0 0 123 75" version="1.1" xmlns="http://www.w3.org/2000/svg" xmlns:xlink="http://www.w3.org/1999/xlink">
    <!-- Generator: sketchtool 52.2 (67145) - http://www.bohemiancoding.com/sketch -->
    <title>15EEFD22-AA1A-4D47-849F-B836A16458DB</title>
    <desc>Created with sketchtool.</desc>
    <g id="Landing-Pages" stroke="none" stroke-width="1" fill="none" fill-rule="evenodd">
        <g id="LP---Branding" transform="translate(-1013.000000, -2688.000000)">
            <g id="section-3---who" transform="translate(0.000000, 2382.000000)">
                <g id="builders" transform="translate(931.000000, 242.000000)">
                    <g id="services-who3-branding" transform="translate(82.000000, 64.000000)">
                        <path d="M106.666,57.764 L106.666,4.998 L4.998,4.998 L4.998,57.764 L106.666,57.764 Z M111.664,62.76 L2.84217094e-14,62.76 L2.84217094e-14,0 L111.664,0 L111.664,62.76 Z" id="Fill-4" fill="#303A44"></path>
                        <path d="M70.0478,19.2308 C64.7718,19.2308 60.4798,23.5248 60.4798,28.7988 C60.4798,34.0728 64.7718,38.3648 70.0478,38.3648 C75.3238,38.3648 79.6178,34.0728 79.6178,28.7988 C79.6178,23.5248 75.3238,19.2308 70.0478,19.2308 M70.0478,43.3628 C62.0178,43.3628 55.4838,36.8288 55.4838,28.7988 C55.4838,20.7688 62.0178,14.2348 70.0478,14.2348 C78.0798,14.2348 84.6138,20.7688 84.6138,28.7988 C84.6138,36.8288 78.0798,43.3628 70.0478,43.3628" id="Fill-5" fill="#303A44"></path>
                        <path d="M35.753,43.5306 L51.241,43.5306 L43.497,30.1186 L35.753,43.5306 Z M59.895,48.5266 L27.099,48.5266 L43.497,20.1246 L59.895,48.5266 Z" id="Fill-7" fill="#303A44"></path>
                        <polygon id="Fill-40" fill="#303A44" points="122.4884 74.8842 87.9484 74.8842 87.9484 69.8882 117.4904 69.8882 117.4904 47.5882 122.4884 47.5882"></polygon>
                        <path d="M75.8828,44.9506 C73.7028,44.9506 71.6588,44.3726 69.8948,43.3626 L70.0488,43.3626 C78.0808,43.3626 84.6128,36.8286 84.6128,28.7986 C84.6128,26.9966 84.2848,25.2726 83.6848,23.6786 C86.2928,25.8926 87.9488,29.1946 87.9488,32.8846 C87.9488,39.5486 82.5468,44.9506 75.8828,44.9506 M70.0488,38.3646 C67.9208,38.3646 65.9548,37.6686 64.3648,36.4906 C64.0088,35.3506 63.8168,34.1406 63.8168,32.8846 C63.8168,26.4026 68.9268,21.1146 75.3388,20.8306 C77.9168,22.5466 79.6168,25.4766 79.6168,28.7986 C79.6168,34.0726 75.3248,38.3646 70.0488,38.3646" id="Fill-47" fill="#FF539E" fill-rule="nonzero"></path>
                        <path d="M70.0478,43.3626 L69.8938,43.3626 C67.2798,41.8646 65.2798,39.4166 64.3638,36.4906 C65.9538,37.6686 67.9218,38.3646 70.0478,38.3646 C75.3238,38.3646 79.6178,34.0726 79.6178,28.7986 C79.6178,25.4766 77.9158,22.5466 75.3378,20.8306 C75.5178,20.8226 75.6998,20.8186 75.8818,20.8186 C78.8578,20.8186 81.5798,21.8946 83.6838,23.6786 C84.2838,25.2726 84.6138,26.9966 84.6138,28.7986 C84.6138,36.8286 78.0798,43.3626 70.0478,43.3626" id="Fill-48" fill="#303A44"></path>
                        <path d="M54.0888,54.4808 L23.3808,54.4808 L38.7348,24.2048 L39.8608,26.4248 L27.0988,48.5268 L51.0688,48.5268 L54.0888,54.4808 Z M48.5348,43.5308 L35.7528,43.5308 L42.5588,31.7448 L48.5348,43.5308 Z" id="Fill-49" fill="#FF539E" fill-rule="nonzero"></path>
                    </g>
                </g>
            </g>
        </g>
    </g>
</svg>