<svg width="127" height="109" viewBox="0 0 127 109" xmlns="http://www.w3.org/2000/svg">
    <title>
        C6DEF066-6AA0-4B25-B9CD-7392B24D67B8
    </title>
    <g fill="none" fill-rule="evenodd">
        <path d="M57.702 85.946H74.29L88.632 67.16c2.96-3.876 4.518-8.358 4.518-12.985 0-12.943-12.236-23.473-27.274-23.473-15.04 0-27.274 10.53-27.274 23.473 0 5.522 2.15 10.69 6.222 14.94l.214.26 12.664 16.57zm19.284 4.301H55.008l-14.14-18.503c-4.718-4.926-7.264-11.038-7.264-17.569 0-15.313 14.476-27.775 32.272-27.775 17.794 0 32.27 12.462 32.27 27.775 0 5.47-1.84 10.768-5.322 15.324l-.196.264-15.642 20.484z" fill="#303A44"/>
        <path fill="#FF539E" fill-rule="nonzero" d="M51.592 109h18.065V98.355H51.592z"/>
        <path d="M55.51 93.8h21.3v-3.555h-21.3V93.8zM50.516 98.8h31.292v-13.55H50.515v13.55z" fill="#303A44"/>
        <path d="M59.66 101.909h13V98.35h-13v3.558zm-4.997 4.996h22.994v-13.55H54.663v13.55z" fill="#303A44"/>
        <path fill="#303A44" d="M62.61 11.24h4.996V.378H62.61z"/>
        <path fill="#303A44" d="M28.682 27.214L21 19.532 24.532 16l7.684 7.682z"/>
        <path fill="#303A44" d="M110.104 101.346l-7.682-7.682 3.532-3.532 7.684 7.68z"/>
        <path fill="#303A44" d="M22.342 101.346l-3.532-3.534 7.682-7.68 3.532 3.532z"/>
        <path fill="#303A44" d="M114.423 65.52l10.54 2.63 1.21-4.85-10.541-2.629z"/>
        <path fill="#303A44" d="M69.49 75.21l-6.127-19.223-5.902 13.038-5.146-8.676h-4.568v-4.996h7.414l1.704 2.872 7.308-16.146 6.196 19.432 3.19-6.838h10.446v4.998H76.74z"/>
        <path fill="#FF539E" fill-rule="nonzero" d="M107.4 30.266L98 25.874l2.114-4.528 3.786 1.77 1.614-7.096 6.602 3.076L113.73 12l4.64 1.153-1.142 5.991-1.612 7.096-6.602-3.076z"/>
        <path fill="#FF539E" fill-rule="nonzero" d="M17.759 63.978l-3.68-2.033-2.123 6.976-6.368-3.525-2.108 6.968-2.992-7.368 2.104-6.967 6.38 3.53 2.121-6.972 9.084 5.017z"/>
    </g>
</svg>
