<svg width="123" height="75" viewBox="0 0 123 75" xmlns="http://www.w3.org/2000/svg">
    <title>
        15EEFD22-AA1A-4D47-849F-B836A16458DB
    </title>
    <g fill="none" fill-rule="evenodd">
        <path d="M106.666 57.764V4.998H4.998v52.766h101.668zm4.998 4.996H0V0h111.664v62.76z" fill="#303A44"/>
        <path d="M70.048 19.23c-5.276 0-9.568 4.295-9.568 9.569 0 5.274 4.292 9.566 9.568 9.566s9.57-4.292 9.57-9.566c0-5.274-4.294-9.568-9.57-9.568m0 24.132c-8.03 0-14.564-6.534-14.564-14.564 0-8.03 6.534-14.564 14.564-14.564 8.032 0 14.566 6.534 14.566 14.564 0 8.03-6.534 14.564-14.566 14.564" fill="#303A44"/>
        <path d="M35.753 43.53h15.488L43.497 30.12 35.753 43.53zm24.142 4.997H27.099l16.398-28.402 16.398 28.402z" fill="#303A44"/>
        <path fill="#303A44" d="M122.488 74.884h-34.54v-4.996h29.542v-22.3h4.998z"/>
        <path d="M75.883 44.95c-2.18 0-4.224-.577-5.988-1.587h.154c8.032 0 14.564-6.534 14.564-14.564 0-1.802-.328-3.526-.928-5.12a12.044 12.044 0 0 1 4.264 9.206c0 6.664-5.402 12.066-12.066 12.066m-5.834-6.586a9.514 9.514 0 0 1-5.684-1.874 12.072 12.072 0 0 1-.548-3.606c0-6.482 5.11-11.77 11.522-12.054a9.561 9.561 0 0 1 4.278 7.968c0 5.274-4.292 9.566-9.568 9.566" fill="#FF539E" fill-rule="nonzero"/>
        <path d="M70.048 43.363h-.154a12.108 12.108 0 0 1-5.53-6.872 9.519 9.519 0 0 0 5.684 1.874c5.276 0 9.57-4.292 9.57-9.566a9.563 9.563 0 0 0-4.28-7.968 12.02 12.02 0 0 1 8.346 2.848 14.5 14.5 0 0 1 .93 5.12c0 8.03-6.534 14.564-14.566 14.564" fill="#303A44"/>
        <path d="M54.089 54.48H23.38l15.354-30.275 1.126 2.22-12.762 22.102h23.97l3.02 5.954zm-5.554-10.95H35.753l6.806-11.785 5.976 11.786z" fill="#FF539E" fill-rule="nonzero"/>
    </g>
</svg>
