<svg width="110" height="103" viewBox="0 0 110 103" xmlns="http://www.w3.org/2000/svg">
    <title>
        AB017A06-278D-4BDF-9718-0DC3A2540AE4
    </title>
    <g fill="none" fill-rule="evenodd">
        <path d="M47.089 37.028h-.008a8.379 8.379 0 0 0-5.956 2.466c-3.282 3.284-3.28 8.636.006 11.934L54.82 65.12l13.698-13.694c3.284-3.296 3.286-8.648.002-11.932a8.382 8.382 0 0 0-5.956-2.466h-.006a8.369 8.369 0 0 0-5.956 2.466l-1.768 1.766-1.78-1.754a8.368 8.368 0 0 0-5.966-2.478m7.732 35.136L37.595 54.958c-5.232-5.248-5.23-13.768 0-18.998a13.328 13.328 0 0 1 9.482-3.93h.012c2.804 0 5.48.856 7.724 2.442a13.383 13.383 0 0 1 7.746-2.442h.006a13.334 13.334 0 0 1 9.486 3.93c5.236 5.23 5.236 13.752.004 18.996l-.004.002-17.1 17.104-.012-.012-.118.114" fill="#303A44"/>
        <path fill="#303A44" d="M52.326 13.058h4.998V0h-4.998z"/>
        <path fill="#303A44" d="M0 55.998h13.058V51H0z"/>
        <path fill="#303A44" d="M96 55.998h13.058V51H96z"/>
        <path fill="#303A44" d="M25.232 27.766L16 18.534 19.53 15l9.238 9.232z"/>
        <path fill="#303A44" d="M88.232 89.766L79 80.534 82.53 77l9.238 9.232z"/>
        <path d="M57.033 102.567a96.689 96.689 0 0 0-2.212-.037h-2.498V91.996h4.998l-.288 10.57z" fill="#303A44" fill-rule="nonzero"/>
        <path fill="#303A44" d="M19.534 89.766L16 86.232 25.238 77l3.53 3.534z"/>
        <path fill="#303A44" d="M85.534 27.766L82 24.232 91.238 15l3.53 3.534z"/>
        <path d="M51.405 79.67l-.016-.012-.012.012-16.32-16.32a11.558 11.558 0 0 1-1.09-15.072 13.377 13.377 0 0 0 3.628 6.68l17.228 17.206.114-.116.01.012 16.134-16.132a11.53 11.53 0 0 1-3.358 7.422L51.405 79.67m3.418-14.55L41.127 51.426a8.46 8.46 0 0 1-2.416-6.872 11.576 11.576 0 0 1 4.508-.914c2.954 0 5.906 1.124 8.158 3.378l.012.012.016-.012a11.497 11.497 0 0 1 8.156-3.378c2.958 0 5.912 1.128 8.162 3.378a11.51 11.51 0 0 1 2.058 2.788 8.423 8.423 0 0 1-1.262 1.62L54.823 65.12" fill="#FF539E" fill-rule="nonzero"/>
    </g>
</svg>
