<?xml version="1.0" encoding="UTF-8"?><!DOCTYPE svg PUBLIC "-//W3C//DTD SVG 1.1//EN" "http://www.w3.org/Graphics/SVG/1.1/DTD/svg11.dtd"><svg xmlns="http://www.w3.org/2000/svg"><symbol id="icon-arrow-left" viewBox="0 0 8 9">
    <title>
        cta-back-chevron/blue
    </title>
    <path d="M.5 4.5c0-.736.606-1.333 1.354-1.333.748 0 1.354.597 1.354 1.333s-.606 1.333-1.354 1.333A1.344 1.344 0 0 1 .5 4.5zm4.292-2.667C4.792 1.097 5.398.5 6.146.5 6.894.5 7.5 1.097 7.5 1.833c0 .737-.606 1.334-1.354 1.334a1.344 1.344 0 0 1-1.354-1.334zm0 5.334c0-.737.606-1.334 1.354-1.334.748 0 1.354.597 1.354 1.334 0 .736-.606 1.333-1.354 1.333a1.344 1.344 0 0 1-1.354-1.333z" fill-rule="evenodd"/>
</symbol><symbol id="icon-arrow-right" viewBox="0 0 8 9">
    <title>
        chevron-cta
    </title>
    <path d="M7.901 4.444c0 .819-.684 1.482-1.528 1.482s-1.528-.663-1.528-1.482c0-.818.684-1.481 1.528-1.481s1.528.663 1.528 1.481zM3.056 7.407c0 .819-.684 1.482-1.528 1.482S0 8.226 0 7.407c0-.818.684-1.481 1.528-1.481s1.528.663 1.528 1.481zm0-5.926c0 .819-.684 1.482-1.528 1.482S0 2.3 0 1.481C0 .663.684 0 1.528 0s1.528.663 1.528 1.481z" fill-rule="evenodd"/>
</symbol><symbol id="icon-chevron" viewBox="0 0 8 9">
    <title>
        chevron
    </title>
    <path d="M7.901 4.444c0 .819-.684 1.482-1.528 1.482s-1.528-.663-1.528-1.482c0-.818.684-1.481 1.528-1.481s1.528.663 1.528 1.481zM3.056 7.407c0 .819-.684 1.482-1.528 1.482S0 8.226 0 7.407c0-.818.684-1.481 1.528-1.481s1.528.663 1.528 1.481zm0-5.926c0 .819-.684 1.482-1.528 1.482S0 2.3 0 1.481C0 .663.684 0 1.528 0s1.528.663 1.528 1.481z" fill-rule="evenodd"/>
</symbol><symbol id="icon-facebook" viewBox="0 0 10 19">
    <title>
        facebook
    </title>
    <path d="M9.766.157v2.946H8.014c-.64 0-1.071.134-1.295.402-.223.268-.335.67-.335 1.205v2.11h3.27l-.435 3.303H6.384v8.471H2.97v-8.47H.123V6.82H2.97V4.387c0-1.384.387-2.457 1.161-3.22C4.904.404 5.934.023 7.222.023c1.093 0 1.941.045 2.544.134z" fill-rule="evenodd"/>
</symbol><symbol id="icon-icon-branding-1" viewBox="0 0 22 24">
    <style>
        .st0{fill:none;stroke:#303a44;stroke-width:1.5;stroke-linecap:round;stroke-linejoin:round}
    </style>
    <title>
        10A05665-5FE3-444B-93BE-64673E6CF987
    </title>
    <path id="Shape" class="st0" d="M10 11.9l4.2-4.2"/>
    <path id="Shape_1_" class="st0" d="M14.2 7.7l.6-3.8L18 .8l.5 2.6 2.6.5-3.2 3.2z"/>
    <path id="Shape_2_" class="st0" d="M20.1 9.5c1.1 4.1-.6 8.5-4.2 10.7s-8.3 1.9-11.5-.8S0 12.1 1.7 8.2s5.7-6.3 10-5.9"/>
    <path id="Shape_3_" class="st0" d="M15.7 10.7c.5 2.2-.4 4.5-2.2 5.7-1.9 1.2-4.3 1.1-6.1-.3s-2.5-3.7-1.7-5.8 2.7-3.5 5-3.5"/>
    <path id="Shape_4_" class="st0" d="M5.5 20.3l-.8 3"/>
    <path id="Shape_5_" class="st0" d="M16 20.3l.8 3"/>
</symbol><symbol id="icon-icon-branding-2" viewBox="0 0 24 24">
    <title>
        424D68F3-9FE7-440E-93ED-BABE9B1D91AB
    </title>
</symbol><symbol id="icon-icon-branding-3" viewBox="0 0 24 24">
    <title>
        4571FD3D-2770-417D-B523-6FE44EF5C6CF
    </title>
    <g fill-rule="evenodd" stroke-linecap="round" stroke-linejoin="round">
        <path d="M12.749.75a10.485 10.485 0 0 0-8.917 16.025L.749 23.25l6.475-3.083A10.5 10.5 0 1 0 12.749.75z" stroke-width="1.5"/>
        <path d="M15.749 13.5a3 3 0 0 1-6 0h6z" stroke-width="1.5"/>
        <path d="M8.124 9.375a.5.5 0 1 0 0 1 .5.5 0 0 0 0-1"/>
        <path d="M17.124 9.375a.5.5 0 1 0 0 1 .5.5 0 0 0 0-1"/>
    </g>
</symbol><symbol id="icon-icon-software-1" viewBox="0 0 25 24">
    <title>
        3500BC5A-E20E-428E-9FAB-18C1E01150FF
    </title>
    <g stroke-width="1.5" fill-rule="evenodd" stroke-linecap="round" stroke-linejoin="round">
        <path d="M1.749 23.25V.75"/>
        <path d="M1.749 18.37L4.9 17.4a9.617 9.617 0 0 1 7.865 1 9.612 9.612 0 0 0 7.678 1.056l2.987-.853c.483-.138.816-.58.816-1.082V4.648a1.125 1.125 0 0 0-1.434-1.082l-2.369.677a9.612 9.612 0 0 1-7.678-1.056 9.613 9.613 0 0 0-7.865-1l-3.154.97.003 15.213z"/>
        <path d="M16.423 7.598l2.935 2.935-2.935 2.934"/>
        <path d="M9.575 7.598l-2.934 2.935 2.934 2.934"/>
        <path d="M13.977 7.598l-1.956 5.869"/>
    </g>
</symbol><symbol id="icon-icon-software-4" viewBox="0 0 24 24">
    <title>
        88C1B978-7585-48AB-A53D-1EFA8ABCA6D6
    </title>
    <g stroke-width="1.5" fill-rule="evenodd" stroke-linecap="round" stroke-linejoin="round">
        <path d="M11.249.75V19.5"/>
        <path d="M11.249 2.25H22.5a.75.75 0 0 1 .576 1.23l-3.4 2.79a.749.749 0 0 0 0 .96l3.4 2.79a.75.75 0 0 1-.576 1.23H11.249"/>
        <path d="M14.239 15.9c4.343.46 7.51 1.9 7.51 3.6 0 2.071-4.7 3.75-10.5 3.75S.749 21.571.749 19.5c0-1.669 3.054-3.084 7.276-3.57"/>
    </g>
</symbol><symbol id="icon-logo" viewBox="0 0 82 31">
    <title>
        logo
    </title>
    <g fill-rule="evenodd">
        <path d="M69.71 15.526c0 2.8-2.267 5.077-5.052 5.077-2.775 0-5.032-2.278-5.032-5.077 0-1.35.526-2.629 1.482-3.604.958-.976 2.218-1.514 3.55-1.514 1.34 0 2.607.538 3.567 1.515a5.115 5.115 0 0 1 1.484 3.603m.893-4.308a7.291 7.291 0 0 0-5.944-3.082c-.869 0-1.748.151-2.613.45-1.973.68-3.552 2.281-4.224 4.28-.823 2.451-.491 4.989.912 6.963a7.274 7.274 0 0 0 5.925 3.046c.858 0 1.728-.146 2.586-.434a6.835 6.835 0 0 0 4.263-4.251c.833-2.44.503-4.98-.905-6.972"/>
        <path d="M29.807 8.4v8.795c0 2.007-1.323 3.408-3.218 3.408-1.871 0-3.179-1.418-3.179-3.449V8.4h-2.35v8.895c0 3.181 2.377 5.58 5.529 5.58 3.175 0 5.57-2.399 5.57-5.58V8.4h-2.352z"/>
        <path d="M51.293 15.848v-.131H46.67v2.169h.46a.524.524 0 0 0 .048.002H49v2.036l-.016.007a6.752 6.752 0 0 1-2.844.632c-2.686 0-4.872-2.278-4.872-5.078 0-2.81 2.186-5.097 4.872-5.097 1.135 0 2.339.486 3.301 1.333.025.023.05.043.075.062l.322.27.267-.282a.714.714 0 0 0 .035-.037c.15-.161.303-.32.45-.475l.17-.178v.001l.67-.706-.525-.425c-1.46-1.221-3.037-1.815-4.824-1.815a7.215 7.215 0 0 0-5.166 2.16 7.387 7.387 0 0 0-2.137 5.23c0 1.976.759 3.826 2.138 5.21a7.241 7.241 0 0 0 5.165 2.14c2.893 0 4.99-1.335 5.011-1.349l.004-.002.004-.003a.622.622 0 0 0 .211-.426c0-.805-.005-1.633-.01-2.434-.005-.928-.011-1.887-.01-2.814"/>
        <path d="M11.027 8.4v5.665l2.331-1.418V8.4z"/>
        <path d="M11.027 22.55h2.331v-8.694l-2.33 1.418z"/>
        <path d="M0 31h82V0H0v31zm2.529-2.64h76.906V2.573H2.529v25.789z"/>
    </g>
</symbol></svg>