<svg width="1440" height="467" viewBox="0 0 1440 467" xmlns="http://www.w3.org/2000/svg">
    <title>
        6B2E6417-59BF-46EC-B37E-E8BC70AB7825
    </title>
    <defs>
        <linearGradient x1="54.678%" y1="95.975%" x2="66.333%" y2="25.564%" id="a">
            <stop stop-color="#FFF5BB" stop-opacity="0" offset="0%"/>
            <stop stop-color="#FFE886" offset="100%"/>
        </linearGradient>
        <linearGradient x1="54.678%" y1="95.975%" x2="66.333%" y2="25.564%" id="b">
            <stop stop-color="#303A44" stop-opacity="0" offset="0%"/>
            <stop stop-color="#303A44" offset="100%"/>
        </linearGradient>
    </defs>
    <g transform="translate(-11)" fill="none" fill-rule="evenodd">
        <path fill="#FF539E" fill-rule="nonzero" d="M11 0h1440v467H11z"/>
        <path fill="url(#a)" opacity=".831" transform="scale(-1 1) rotate(58 0 -1085.6)" d="M834.566 400.998l23.5 38h-47z"/>
        <path fill="url(#a)" opacity=".831" transform="scale(1 -1) rotate(-81 1109.962 0)" d="M1326.566 165.998l23.5 38h-47z"/>
        <path fill="url(#a)" opacity=".831" transform="scale(1 -1) rotate(41 934.693 0)" d="M533.5 131l23.5 38h-47z"/>
        <path fill="url(#a)" opacity=".831" transform="scale(1 -1) rotate(-80 219.145 0)" d="M283.5 35L307 73h-47z"/>
        <path fill="url(#a)" opacity=".831" transform="scale(1 -1) rotate(43 1087.413 0)" d="M173.5 341l23.5 38h-47z"/>
        <path fill="url(#a)" opacity=".831" transform="matrix(1 0 0 -1 0 200)" d="M23.5 81L47 119H0z"/>
        <circle fill="url(#b)" opacity=".383" transform="rotate(133 1241 359)" cx="1241" cy="359" r="13"/>
        <circle fill="url(#b)" opacity=".383" transform="rotate(-171 1451 247)" cx="1451" cy="247" r="13"/>
        <circle fill="url(#b)" opacity=".383" transform="rotate(45 193 197)" cx="193" cy="197" r="13"/>
        <circle fill="url(#b)" opacity=".383" transform="rotate(-122 44 433)" cx="44" cy="433" r="13"/>
        <circle fill="url(#b)" opacity=".383" transform="rotate(-141 372 372)" cx="372" cy="372" r="13"/>
        <circle fill="url(#b)" opacity=".383" transform="rotate(-102 860 117)" cx="860" cy="117" r="13"/>
        <circle fill="url(#b)" opacity=".383" transform="rotate(180 1311 78)" cx="1311" cy="78" r="13"/>
    </g>
</svg>
