<?xml version="1.0" encoding="UTF-8"?>
<svg width="261px" height="230px" viewBox="0 0 261 230" version="1.1" xmlns="http://www.w3.org/2000/svg" xmlns:xlink="http://www.w3.org/1999/xlink">
    <!-- Generator: sketchtool 52.2 (67145) - http://www.bohemiancoding.com/sketch -->
    <title>6DCEA723-5C06-4E27-BFED-E599C22C31A6</title>
    <desc>Created with sketchtool.</desc>
    <g id="Landing-Pages" stroke="none" stroke-width="1" fill="none" fill-rule="evenodd">
        <g id="LP---Branding" transform="translate(-892.000000, -320.000000)">
            <g id="section-1---Hero" transform="translate(136.000000, 250.000000)">
                <g id="Hero-image" transform="translate(602.000000, 0.000000)">
                    <g id="services/uxui">
                        <g id="Group-55" transform="translate(154.000000, 69.000000)">
                            <polygon id="Fill-1" fill="#000000" points="63.0314 112.7926 45.7514 107.7366 47.1534 102.9426 55.6734 105.4346 53.1814 96.9146 57.9754 95.5126"></polygon>
                            <polygon id="Fill-2" fill="#000000" points="0 60.1476 7.588 67.7356 11.122 64.2036 7.066 60.1476 10.386 56.8276 14.44 60.8836 17.972 57.3496 10.386 49.7616"></polygon>
                            <path d="M11.759,67.1208 L46.435,101.7948 L52.029,96.2028 L17.353,61.5248 L11.759,67.1208 Z M46.435,108.8608 L4.693,67.1208 L17.353,54.4588 L59.095,96.2028 L46.435,108.8608 Z" id="Fill-3" fill="#000000"></path>
                            <path d="M25.6154,152.5992 L127.2834,152.5992 L127.2834,99.8332 L55.4654,99.8332 L46.4354,108.8612 L37.4054,99.8332 L25.6154,99.8332 L25.6154,152.5992 Z M132.2814,157.5952 L20.6174,157.5952 L20.6174,94.8352 L39.4734,94.8352 L46.4354,101.7952 L53.3954,94.8352 L132.2814,94.8352 L132.2814,157.5952 Z" id="Fill-4" fill="#000000"></path>
                            <g id="Group-54" transform="translate(43.000000, 0.068000)">
                                <path d="M47.6652,113.998 C42.3892,113.998 38.0972,118.292 38.0972,123.566 C38.0972,128.84 42.3892,133.132 47.6652,133.132 C52.9412,133.132 57.2352,128.84 57.2352,123.566 C57.2352,118.292 52.9412,113.998 47.6652,113.998 M47.6652,138.13 C39.6352,138.13 33.1012,131.596 33.1012,123.566 C33.1012,115.536 39.6352,109.002 47.6652,109.002 C55.6972,109.002 62.2312,115.536 62.2312,123.566 C62.2312,131.596 55.6972,138.13 47.6652,138.13" id="Fill-5" fill="#000000"></path>
                                <path d="M13.3704,138.2978 L28.8584,138.2978 L21.1144,124.8858 L13.3704,138.2978 Z M37.5124,143.2938 L4.7164,143.2938 L21.1144,114.8918 L37.5124,143.2938 Z" id="Fill-7" fill="#000000"></path>
                                <path d="M86.782,114.42 L100.108,114.42 L100.108,109.424 L86.782,109.424 L86.782,114.42 Z M113.432,114.42 L126.758,114.42 L126.758,109.424 L113.432,109.424 L113.432,114.42 Z M149.252,119.454 L144.216,114.42 L140.082,114.42 L140.082,109.424 L146.286,109.424 L152.784,115.922 L149.252,119.454 Z M150.062,138.3 L146.532,134.768 L155.954,125.344 L159.488,128.878 L150.062,138.3 Z M140.004,157.146 L132.08,149.22 L137.11,144.188 L140.642,147.722 L139.144,149.22 L143.536,153.612 L140.004,157.146 Z M163.874,168.85 L151.712,168.85 L149.426,166.568 L152.96,163.034 L153.782,163.854 L163.874,163.854 L163.874,168.85 Z M177.198,168.85 L190.522,168.85 L190.522,163.854 L177.198,163.854 L177.198,168.85 Z M203.848,168.85 L217.174,168.85 L217.174,163.854 L203.848,163.854 L203.848,168.85 Z" id="Fill-9" fill="#000000"></path>
                                <polygon id="Fill-15" fill="#000000" points="208.532 98.92 213.588 98.92 213.588 93.864 208.532 93.864"></polygon>
                                <polygon id="Fill-16" fill="#000000" points="198.954 98.92 204.01 98.92 204.01 93.864 198.954 93.864"></polygon>
                                <polygon id="Fill-17" fill="#000000" points="189.376 98.92 194.43 98.92 194.43 93.864 189.376 93.864"></polygon>
                                <polygon id="Fill-18" fill="#000000" points="179.8 98.92 184.854 98.92 184.854 93.864 179.8 93.864"></polygon>
                                <polygon id="Fill-19" fill="#000000" points="208.532 108.498 213.588 108.498 213.588 103.442 208.532 103.442"></polygon>
                                <polygon id="Fill-20" fill="#000000" points="198.954 108.498 204.01 108.498 204.01 103.442 198.954 103.442"></polygon>
                                <polygon id="Fill-21" fill="#000000" points="189.376 108.498 194.43 108.498 194.43 103.442 189.376 103.442"></polygon>
                                <polygon id="Fill-22" fill="#000000" points="179.8 108.498 184.854 108.498 184.854 103.442 179.8 103.442"></polygon>
                                <polygon id="Fill-23" fill="#000000" points="208.532 118.074 213.588 118.074 213.588 113.018 208.532 113.018"></polygon>
                                <polygon id="Fill-24" fill="#000000" points="198.954 118.074 204.01 118.074 204.01 113.018 198.954 113.018"></polygon>
                                <polygon id="Fill-25" fill="#000000" points="189.376 118.074 194.43 118.074 194.43 113.018 189.376 113.018"></polygon>
                                <polygon id="Fill-26" fill="#000000" points="208.532 127.652 213.588 127.652 213.588 122.596 208.532 122.596"></polygon>
                                <polygon id="Fill-27" fill="#000000" points="198.954 127.652 204.01 127.652 204.01 122.596 198.954 122.596"></polygon>
                                <polygon id="Fill-28" fill="#000000" points="151.168 207.84 156.222 207.84 156.222 202.786 151.168 202.786"></polygon>
                                <polygon id="Fill-29" fill="#000000" points="151.168 198.264 156.222 198.264 156.222 193.208 151.168 193.208"></polygon>
                                <polygon id="Fill-30" fill="#000000" points="141.59 207.84 146.644 207.84 146.644 202.786 141.59 202.786"></polygon>
                                <polygon id="Fill-31" fill="#000000" points="141.59 217 146.644 217 146.644 211.946 141.59 211.946"></polygon>
                                <polygon id="Fill-32" fill="#000000" points="141.59 198.264 146.644 198.264 146.644 193.208 141.59 193.208"></polygon>
                                <polygon id="Fill-33" fill="#000000" points="141.59 188.686 146.644 188.686 146.644 183.632 141.59 183.632"></polygon>
                                <polygon id="Fill-34" fill="#000000" points="132.012 207.84 137.066 207.84 137.066 202.786 132.012 202.786"></polygon>
                                <polygon id="Fill-35" fill="#000000" points="132.012 198.264 137.066 198.264 137.066 193.208 132.012 193.208"></polygon>
                                <polygon id="Fill-36" fill="#000000" points="122.434 207.84 127.488 207.84 127.488 202.786 122.434 202.786"></polygon>
                                <polygon id="Fill-37" fill="#000000" points="122.434 217 127.488 217 127.488 211.946 122.434 211.946"></polygon>
                                <path d="M157.8636,154.293 L142.4116,169.745 L142.3996,169.733 L142.3876,169.745 L126.9356,154.293 C122.6656,150.011 122.6656,143.099 126.9356,138.829 C131.1936,134.573 138.1196,134.561 142.3876,138.829 L142.3996,138.843 L142.4116,138.829 C146.6816,134.561 153.6056,134.573 157.8636,138.829 C162.1316,143.099 162.1316,150.011 157.8636,154.293" id="Fill-38" fill="#FEFEFE"></path>
                                <path d="M134.6634,138.1298 L134.6574,138.1298 C132.4054,138.1318 130.2914,139.0058 128.7014,140.5958 C125.4174,143.8818 125.4174,149.2338 128.7054,152.5278 L142.3874,166.2118 L142.5074,166.0878 L142.5194,166.1018 L156.0934,152.5278 C159.3814,149.2338 159.3814,143.8818 156.0974,140.5958 C152.8114,137.3098 147.4634,137.3098 144.1774,140.5958 L142.5254,142.2478 L140.7554,140.7198 C139.0314,139.0058 136.9134,138.1298 134.6634,138.1298 M142.2894,173.4018 L140.6194,171.5118 L125.1694,156.0598 C119.9394,150.8138 119.9394,142.2938 125.1694,137.0618 C127.7014,134.5298 131.0714,133.1358 134.6554,133.1318 L134.6634,133.1318 C137.4754,133.1318 140.1554,133.9918 142.4034,135.5838 C147.6454,131.8878 154.9474,132.3838 159.6294,137.0618 C164.8614,142.2938 164.8614,150.8138 159.6334,156.0578 L159.6294,156.0598 L142.2894,173.4018" id="Fill-39" fill="#000000"></path>
                                <polygon id="Fill-40" fill="#000000" points="100.1058 169.6514 65.5658 169.6514 65.5658 164.6554 95.1078 164.6554 95.1078 142.3554 100.1058 142.3554"></polygon>
                                <polygon id="Fill-41" fill="#000000" points="110.548 180.0928 86.952 180.0928 86.952 175.0968 105.55 175.0968 105.55 159.5728 110.548 159.5728"></polygon>
                                <path d="M178.83,148.47 L188.714,148.47 L188.714,138.584 L178.83,138.584 L178.83,148.47 Z M173.832,153.466 L193.71,153.466 L193.71,133.586 L173.832,133.586 L173.832,153.466 Z" id="Fill-42" fill="#000000"></path>
                                <polygon id="Fill-43" fill="#000000" points="103.766 96.364 150.222 96.364 150.222 91.366 103.766 91.366"></polygon>
                                <path d="M137.0804,177.5888 L137.0684,177.5748 L137.0544,177.5888 L120.7364,161.2688 C116.2264,156.7468 116.2264,149.4448 120.7364,144.9368 C120.9624,144.7088 121.1964,144.4948 121.4364,144.2908 C120.7344,148.4388 121.9784,152.8588 125.1684,156.0588 L140.6204,171.5128 L141.8104,172.8588 L137.0804,177.5888" id="Fill-44" fill="#FF539E"></path>
                                <path d="M142.387,166.212 L128.705,152.528 C125.737,149.554 125.449,144.902 127.839,141.608 C128.191,141.576 128.543,141.56 128.897,141.56 C131.849,141.56 134.803,142.684 137.055,144.936 L137.067,144.95 L137.081,144.936 C138.553,143.464 140.323,142.474 142.197,141.966 L142.525,142.248 L142.995,141.778 C143.735,141.632 144.487,141.56 145.239,141.56 C148.195,141.56 151.151,142.686 153.401,144.936 C155.333,146.87 156.437,149.316 156.713,151.836 C156.521,152.076 156.315,152.306 156.095,152.528 L142.519,166.102 L142.509,166.09 L142.387,166.212" id="Fill-45" fill="#FF539E"></path>
                                <path d="M141.8098,172.8584 L140.6198,171.5124 L125.1698,156.0604 C121.9778,152.8584 120.7338,148.4384 121.4358,144.2884 C123.2958,142.7124 125.5418,141.8164 127.8378,141.6084 C125.4478,144.9024 125.7378,149.5544 128.7058,152.5284 L142.3858,166.2124 L142.5078,166.0884 L142.5198,166.1024 L156.0938,152.5284 C156.3158,152.3064 156.5218,152.0744 156.7138,151.8344 C157.0798,155.1944 155.9758,158.6844 153.3998,161.2684 L141.8098,172.8584 M142.5238,142.2464 L142.1978,141.9644 C142.4598,141.8924 142.7258,141.8304 142.9938,141.7784 L142.5238,142.2464" id="Fill-46" fill="#000000"></path>
                                <path d="M53.5002,139.7178 C51.3202,139.7178 49.2762,139.1398 47.5122,138.1298 L47.6662,138.1298 C55.6982,138.1298 62.2302,131.5958 62.2302,123.5658 C62.2302,121.7638 61.9022,120.0398 61.3022,118.4458 C63.9102,120.6598 65.5662,123.9618 65.5662,127.6518 C65.5662,134.3158 60.1642,139.7178 53.5002,139.7178 M47.6662,133.1318 C45.5382,133.1318 43.5722,132.4358 41.9822,131.2578 C41.6262,130.1178 41.4342,128.9078 41.4342,127.6518 C41.4342,121.1698 46.5442,115.8818 52.9562,115.5978 C55.5342,117.3138 57.2342,120.2438 57.2342,123.5658 C57.2342,128.8398 52.9422,133.1318 47.6662,133.1318" id="Fill-47" fill="#FF539E"></path>
                                <path d="M47.6652,138.1298 L47.5112,138.1298 C44.8972,136.6318 42.8972,134.1838 41.9812,131.2578 C43.5712,132.4358 45.5392,133.1318 47.6652,133.1318 C52.9412,133.1318 57.2352,128.8398 57.2352,123.5658 C57.2352,120.2438 55.5332,117.3138 52.9552,115.5978 C53.1352,115.5898 53.3172,115.5858 53.4992,115.5858 C56.4752,115.5858 59.1972,116.6618 61.3012,118.4458 C61.9012,120.0398 62.2312,121.7638 62.2312,123.5658 C62.2312,131.5958 55.6972,138.1298 47.6652,138.1298" id="Fill-48" fill="#000000"></path>
                                <path d="M31.7062,149.248 L0.9982,149.248 L16.3522,118.972 L17.4782,121.192 L4.7162,143.294 L28.6862,143.294 L31.7062,149.248 Z M26.1522,138.298 L13.3702,138.298 L20.1762,126.512 L26.1522,138.298 Z" id="Fill-49" fill="#FF539E"></path>
                                <polygon id="Fill-50" fill="#000000" points="28.6868 143.294 4.7168 143.294 17.4768 121.192 20.1768 126.512 13.3708 138.298 26.1528 138.298"></polygon>
                                <g id="Group" transform="translate(107.000000, 0.366000)">
                                    <path d="M5.036,71.954 L31.486,71.954 L31.486,34.256 L5.036,34.256 L5.036,71.954 Z M0.038,76.952 L36.482,76.952 L36.482,29.26 L0.038,29.26 L0.038,76.952 Z" id="Fill-11" fill="#000000"></path>
                                    <path d="M36.4816,62.9492 L40.9596,62.9492 C42.3416,62.9492 43.4636,61.8252 43.4636,60.4452 L43.4636,42.7352 C43.4636,41.3392 42.3416,40.2052 40.9596,40.2052 L36.4816,40.2052 L36.4816,62.9492 M40.9596,67.9472 L31.4856,67.9472 L31.4856,35.2072 L40.9596,35.2072 C45.0956,35.2072 48.4596,38.5832 48.4596,42.7352 L48.4596,60.4452 C48.4596,64.5812 45.0956,67.9472 40.9596,67.9472" id="Fill-12" fill="#000000"></path>
                                    <polygon id="Fill-13" fill="#000000" points="11.1048 24.2646 7.5708 20.7326 12.3968 15.9066 5.7588 9.2706 14.0968 0.9326 17.6308 4.4666 12.8248 9.2706 19.4608 15.9066"></polygon>
                                    <polygon id="Fill-14" fill="#000000" points="22.4046 24.2646 18.8706 20.7326 23.6966 15.9066 17.0586 9.2706 25.3966 0.9326 28.9306 4.4666 24.1246 9.2706 30.7606 15.9066"></polygon>
                                    <polygon id="Fill-51" fill="#FF539E" points="31.4856 71.9542 27.3536 71.9542 27.3536 39.1522 5.0356 39.1522 5.0356 71.9542 5.0356 34.2562 31.4856 34.2562"></polygon>
                                    <path d="M32.3508,76.9512 L0.0388,76.9512 L0.0388,34.1552 L32.3508,34.1552 L32.3508,35.2072 L31.4848,35.2072 L31.4848,67.9452 L32.3508,67.9452 L32.3508,76.9512 Z M27.3528,71.9532 L31.4848,71.9532 L31.4848,34.2572 L5.0348,34.2572 L5.0348,71.9532 L27.3528,71.9532 Z" id="Fill-52" fill="#000000"></path>
                                    <polygon id="Fill-53" fill="#000000" points="31.9601148 67.946 32.6199571 67.946 32.6199571 43 31.9601148 43"></polygon>
                                </g>
                            </g>
                            <g id="Group-11" transform="translate(53.000000, 55.000000)">
                                <g id="Group-4">
                                    <path d="M23,161 C18.03759,161 14,156.962765 14,151.99921 C14,147.037235 18.03759,143 23,143 C27.9639909,143 32,147.037235 32,151.99921 C32,156.962765 27.9639909,161 23,161" id="Fill-3-Copy" fill="#FF539E"></path>
                                    <path d="M27.3212,163.3798 C30.2732,163.3798 32.9092,165.3078 35.1772,169.1218 C35.6812,168.9318 36.1752,168.7258 36.6552,168.5038 C35.5852,164.2038 36.0812,160.9738 38.1412,158.8858 C40.2372,156.7898 43.4732,156.2918 47.7852,157.3878 C48.0072,156.9078 48.2112,156.4138 48.4012,155.9078 C44.5712,153.6418 42.6332,151.0018 42.6332,148.0438 C42.6332,145.0858 44.5712,142.4498 48.4012,140.1818 C48.2132,139.6778 48.0092,139.1858 47.7872,138.7058 C43.4872,139.8078 40.2492,139.3118 38.1532,137.2138 C36.0772,135.1378 35.5752,131.9118 36.6512,127.6058 C36.1712,127.3858 35.6812,127.1798 35.1772,126.9918 C30.6392,134.6098 24.0012,134.6138 19.4672,126.9918 C18.9632,127.1798 18.4692,127.3858 17.9912,127.6058 C19.0672,131.9118 18.5652,135.1378 16.4912,137.2138 C14.3932,139.3118 11.1572,139.8078 6.8552,138.7058 C6.6332,139.1858 6.4292,139.6778 6.2412,140.1818 C10.0692,142.4478 12.0092,145.0858 12.0092,148.0438 C12.0092,151.0018 10.0692,153.6418 6.2412,155.9078 C6.4292,156.4138 6.6352,156.9078 6.8572,157.3878 C11.1672,156.2918 14.4032,156.7898 16.4892,158.8758 C18.5572,160.9718 19.0572,164.2018 17.9872,168.5038 C18.4692,168.7258 18.9612,168.9318 19.4672,169.1218 C21.7332,165.3078 24.3692,163.3798 27.3212,163.3798 M22.0052,175.1118 L19.9992,174.5478 C17.7592,173.9198 15.6592,173.0378 13.7572,171.9298 L11.9992,170.9078 L12.6452,168.9778 C13.7232,165.7598 13.8352,163.2998 12.9432,162.3958 C12.0632,161.5198 9.6152,161.6398 6.4012,162.7378 L4.4632,163.3998 L3.4332,161.6298 C2.3192,159.7138 1.4392,157.6038 0.8152,155.3598 L0.2572,153.3538 L2.1312,152.4438 C5.1872,150.9558 7.0132,149.3138 7.0132,148.0438 C7.0132,146.7778 5.1872,145.1318 2.1312,143.6458 L0.2572,142.7358 L0.8152,140.7318 C1.4392,138.4858 2.3192,136.3758 3.4332,134.4598 L4.4672,132.6818 L6.4092,133.3538 C9.6092,134.4598 12.0572,134.5818 12.9572,133.6818 C13.6412,132.9978 13.9192,130.9178 12.6472,127.1378 L11.9972,125.2078 L13.7572,124.1818 C15.6592,123.0758 17.7592,122.1938 19.9992,121.5638 L22.0052,120.9998 L22.9192,122.8718 C24.6732,126.4578 26.3432,127.7358 27.3212,127.7358 C28.3012,127.7358 29.9692,126.4578 31.7212,122.8738 L32.6352,120.9998 L34.6412,121.5638 C36.8832,122.1938 38.9832,123.0758 40.8852,124.1818 L42.6472,125.2078 L41.9952,127.1398 C40.7212,130.9178 41.0012,132.9978 41.6852,133.6818 C42.5892,134.5818 45.0332,134.4598 48.2312,133.3538 L50.1732,132.6838 L51.2052,134.4598 C52.3192,136.3698 53.2012,138.4798 53.8252,140.7318 L54.3852,142.7358 L52.5132,143.6458 C49.4552,145.1318 47.6312,146.7778 47.6312,148.0438 C47.6312,149.3138 49.4552,150.9558 52.5132,152.4438 L54.3852,153.3538 L53.8252,155.3598 C53.2012,157.6098 52.3192,159.7198 51.2052,161.6298 L50.1772,163.3998 L48.2392,162.7378 C45.0252,161.6378 42.5792,161.5178 41.6852,162.4078 C40.8052,163.2998 40.9172,165.7598 41.9952,168.9778 L42.6432,170.9078 L40.8852,171.9298 C38.9832,173.0378 36.8832,173.9198 34.6412,174.5478 L32.6352,175.1118 L31.7212,173.2398 C29.9692,169.6538 28.3012,168.3758 27.3212,168.3758 C26.3432,168.3758 24.6732,169.6558 22.9192,173.2398 L22.0052,175.1118" id="Fill-1" fill="#000000"></path>
                                    <path d="M27.3212,141.667 C23.7992,141.667 20.9312,144.533 20.9312,148.055 C20.9312,151.579 23.7992,154.447 27.3212,154.447 C30.8452,154.447 33.7112,151.579 33.7112,148.055 C33.7112,144.533 30.8452,141.667 27.3212,141.667 M27.3212,159.443 C21.0432,159.443 15.9352,154.335 15.9352,148.055 C15.9352,141.777 21.0432,136.669 27.3212,136.669 C33.6012,136.669 38.7072,141.777 38.7072,148.055 C38.7072,154.335 33.6012,159.443 27.3212,159.443" id="Fill-3" fill="#000000"></path>
                                    <polygon id="Fill-87" fill="#FF539E" points="36.66 11.438 26.854 5.772 17.054 11.438 6 5.05 8.502 0.722 17.054 5.668 26.854 0 36.66 5.668 46.464 0 56.28 5.668 66.106 0.002 77.178 6.388 74.684 10.718 66.106 5.77 56.278 11.436 46.464 5.772"></polygon>
                                </g>
                            </g>
                        </g>
                    </g>
                </g>
            </g>
        </g>
    </g>
</svg>