<?xml version="1.0" encoding="UTF-8"?><!DOCTYPE svg PUBLIC "-//W3C//DTD SVG 1.1//EN" "http://www.w3.org/Graphics/SVG/1.1/DTD/svg11.dtd"><svg xmlns="http://www.w3.org/2000/svg"><symbol id="icon-arrow-left" viewBox="0 0 8 9">
    <title>
        cta-back-chevron/blue
    </title>
    <path d="M.5 4.5c0-.736.606-1.333 1.354-1.333.748 0 1.354.597 1.354 1.333s-.606 1.333-1.354 1.333A1.344 1.344 0 0 1 .5 4.5zm4.292-2.667C4.792 1.097 5.398.5 6.146.5 6.894.5 7.5 1.097 7.5 1.833c0 .737-.606 1.334-1.354 1.334a1.344 1.344 0 0 1-1.354-1.334zm0 5.334c0-.737.606-1.334 1.354-1.334.748 0 1.354.597 1.354 1.334 0 .736-.606 1.333-1.354 1.333a1.344 1.344 0 0 1-1.354-1.333z" fill-rule="evenodd"/>
</symbol><symbol id="icon-arrow-right" viewBox="0 0 8 9">
    <title>
        chevron-cta
    </title>
    <path d="M7.901 4.444c0 .819-.684 1.482-1.528 1.482s-1.528-.663-1.528-1.482c0-.818.684-1.481 1.528-1.481s1.528.663 1.528 1.481zM3.056 7.407c0 .819-.684 1.482-1.528 1.482S0 8.226 0 7.407c0-.818.684-1.481 1.528-1.481s1.528.663 1.528 1.481zm0-5.926c0 .819-.684 1.482-1.528 1.482S0 2.3 0 1.481C0 .663.684 0 1.528 0s1.528.663 1.528 1.481z" fill-rule="evenodd"/>
</symbol><symbol id="icon-chevron" viewBox="0 0 8 9">
    <title>
        chevron
    </title>
    <path d="M7.901 4.444c0 .819-.684 1.482-1.528 1.482s-1.528-.663-1.528-1.482c0-.818.684-1.481 1.528-1.481s1.528.663 1.528 1.481zM3.056 7.407c0 .819-.684 1.482-1.528 1.482S0 8.226 0 7.407c0-.818.684-1.481 1.528-1.481s1.528.663 1.528 1.481zm0-5.926c0 .819-.684 1.482-1.528 1.482S0 2.3 0 1.481C0 .663.684 0 1.528 0s1.528.663 1.528 1.481z" fill-rule="evenodd"/>
</symbol><symbol id="icon-facebook" viewBox="0 0 10 19">
    <title>
        facebook
    </title>
    <path d="M9.766.157v2.946H8.014c-.64 0-1.071.134-1.295.402-.223.268-.335.67-.335 1.205v2.11h3.27l-.435 3.303H6.384v8.471H2.97v-8.47H.123V6.82H2.97V4.387c0-1.384.387-2.457 1.161-3.22C4.904.404 5.934.023 7.222.023c1.093 0 1.941.045 2.544.134z" fill-rule="evenodd"/>
</symbol><symbol id="icon-icon-branding-1" viewBox="0 0 22 24">
    <title>
        10A05665-5FE3-444B-93BE-64673E6CF987
    </title>
    <g stroke-width="1.5" fill-rule="evenodd" stroke-linecap="round" stroke-linejoin="round">
        <path d="M10.015 11.859l4.167-4.167"/>
        <path d="M14.182 7.692l.568-3.75L17.998.75l.502 2.624 2.624.502-3.192 3.248z"/>
        <path d="M20.054 9.513A9.75 9.75 0 1 1 11.613 2.3"/>
        <path d="M15.721 10.737a5.251 5.251 0 1 1-5.1-3.987"/>
        <path d="M5.515 20.25l-.75 3"/>
        <path d="M16.015 20.25l.75 3"/>
    </g>
</symbol><symbol id="icon-icon-branding-2" viewBox="0 0 24 24">
    <title>
        Group
    </title>
    <g stroke-width="1.5" fill-rule="evenodd" stroke-linecap="round" stroke-linejoin="round">
        <path d="M22.191 1.811a3.631 3.631 0 0 0-5.157.035L2.569 16.307l-1.82 6.94 6.942-1.819L22.156 6.967a3.628 3.628 0 0 0 .035-5.156z"/>
        <path d="M16.621 2.26l5.122 5.12"/>
        <path d="M14.531 4.348l5.122 5.12"/>
        <path d="M2.569 16.307l3.59 1.532 1.536 3.584"/>
        <path d="M17.092 6.908L6.159 17.838"/>
    </g>
</symbol><symbol id="icon-icon-branding-3" viewBox="0 0 24 24">
    <title>
        4571FD3D-2770-417D-B523-6FE44EF5C6CF
    </title>
    <g fill-rule="evenodd" stroke-linecap="round" stroke-linejoin="round">
        <path d="M12.749.75a10.485 10.485 0 0 0-8.917 16.025L.749 23.25l6.475-3.083A10.5 10.5 0 1 0 12.749.75z" stroke-width="1.5"/>
        <path d="M15.749 13.5a3 3 0 0 1-6 0h6z" stroke-width="1.5"/>
        <path d="M8.124 9.375a.5.5 0 1 0 0 1 .5.5 0 0 0 0-1"/>
        <path d="M17.124 9.375a.5.5 0 1 0 0 1 .5.5 0 0 0 0-1"/>
    </g>
</symbol><symbol id="icon-icon-ecomm-1" viewBox="0 0 24 24">
    <title>
        2C36B74D-5376-41ED-8B0F-DAC49BE7CF59
    </title>
    <g fill-rule="evenodd" stroke-linecap="round" stroke-linejoin="round">
        <path d="M12 4.75a.5.5 0 1 1 0 1 .5.5 0 0 1 0-1"/>
        <path d="M12 .75a4.5 4.5 0 0 1 4.5 4.5c0 1.921-2.688 5.577-3.909 7.138a.75.75 0 0 1-1.182 0C10.187 10.826 7.5 7.171 7.5 5.25A4.5 4.5 0 0 1 12 .75z" stroke-width="1.5"/>
        <path d="M6.005 9.781a1.5 1.5 0 0 0-1.109.97l-3.441 10.5a1.5 1.5 0 0 0 1.414 2h18.26a1.5 1.5 0 0 0 1.415-2l-3.444-10.5a1.5 1.5 0 0 0-1.117-.971" stroke-width="1.5"/>
        <path d="M7.499 23.249l1.5-8.999" stroke-width="1.5"/>
        <path d="M16.499 23.249l-1.5-8.999" stroke-width="1.5"/>
        <path d="M2.303 18.75h19.421" stroke-width="1.5"/>
        <path d="M3.749 14.25h5.25" stroke-width="1.5"/>
        <path d="M14.999 14.25h5.25" stroke-width="1.5"/>
    </g>
</symbol><symbol id="icon-icon-ecomm-3" viewBox="0 0 24 25">
    <title>
        0C31CF8F-D4E2-420E-ADE4-F5F2121B8280
    </title>
    <g transform="translate(0 1)" stroke-width="1.5" fill-rule="evenodd" stroke-linecap="round" stroke-linejoin="round">
        <path d="M.749 22.32h21.75"/>
        <path d="M2.749 18H5.5c.276 0 .5.215.5.48v3.84H2.249v-3.84a.49.49 0 0 1 .5-.48z"/>
        <path d="M10.249 9.36H13c.276 0 .5.215.5.48v12.48H9.749V9.84a.49.49 0 0 1 .5-.48z"/>
        <path d="M17.749 13.68H20.5c.276 0 .5.215.5.48v8.16h-3.75v-8.16a.49.49 0 0 1 .499-.48z"/>
        <path d="M6.883 4.916L2.866 8.77"/>
        <path d="M14.311 6.072l-4.674-1.2"/>
        <path d="M20.392 2.772l-3.581 2.69"/>
        <ellipse cx="8.249" cy="4.321" rx="1.5" ry="1.44"/>
        <ellipse cx="21.75" cy="2.16" rx="1.5" ry="1.44"/>
        <ellipse cx="15.75" cy="6.48" rx="1.5" ry="1.44"/>
        <ellipse cx="2.249" cy="10.081" rx="1.5" ry="1.44"/>
    </g>
</symbol><symbol id="icon-icon-ecomm-4" viewBox="0 0 24 24">
    <title>
        5DDC6CC2-A71F-4513-B110-007AFE333710
    </title>
    <g fill-rule="evenodd" stroke-linecap="round" stroke-linejoin="round">
        <circle stroke-width="1.5" cx="4.499" cy="7.5" r="2.25"/>
        <path d="M9.751 23.25a1.5 1.5 0 0 1-1.344-.829l-.67-1.342A1.491 1.491 0 0 0 6.4 20.25H4.5a1.5 1.5 0 0 1-1.5-1.5v-6a1.5 1.5 0 0 1 2.331-1.25l1.116.744a3 3 0 0 0 1.665.5h1.637a1.5 1.5 0 0 1 0 3H8.112A5.964 5.964 0 0 1 6 15.366v1.884h.4a4.478 4.478 0 0 1 4.025 2.487l.671 1.342a1.5 1.5 0 0 1-1.34 2.171h-.005z" stroke-width="1.5"/>
        <path d="M4.499 20.25h-3" stroke-width="1.5"/>
        <path d="M9.749 15.75h10.5" stroke-width="1.5"/>
        <path d="M14.999 15.75v7.5" stroke-width="1.5"/>
        <path stroke-width="1.5" d="M14.249 12.75h6l2.25-5.25"/>
        <path d="M14.249 7.125a.5.5 0 1 0 0 1 .5.5 0 0 0 0-1"/>
        <path d="M11.6 4.848a3.75 3.75 0 0 1 5.3 0" stroke-width="1.5"/>
        <path d="M9.476 2.727a6.75 6.75 0 0 1 9.546 0" stroke-width="1.5"/>
        <path d="M3.749 23.25v-3" stroke-width="1.5"/>
    </g>
</symbol><symbol id="icon-icon-software-1" viewBox="0 0 25 24">
    <title>
        3500BC5A-E20E-428E-9FAB-18C1E01150FF
    </title>
    <g stroke-width="1.5" fill-rule="evenodd" stroke-linecap="round" stroke-linejoin="round">
        <path d="M1.749 23.25V.75"/>
        <path d="M1.749 18.37L4.9 17.4a9.617 9.617 0 0 1 7.865 1 9.612 9.612 0 0 0 7.678 1.056l2.987-.853c.483-.138.816-.58.816-1.082V4.648a1.125 1.125 0 0 0-1.434-1.082l-2.369.677a9.612 9.612 0 0 1-7.678-1.056 9.613 9.613 0 0 0-7.865-1l-3.154.97.003 15.213z"/>
        <path d="M16.423 7.598l2.935 2.935-2.935 2.934"/>
        <path d="M9.575 7.598l-2.934 2.935 2.934 2.934"/>
        <path d="M13.977 7.598l-1.956 5.869"/>
    </g>
</symbol><symbol id="icon-icon-software-2" viewBox="0 0 28 25">
    <title>
        A3FA4FD1-A586-4C87-B03F-39C4D2B6CF66
    </title>
    <g stroke-width="1.5" fill-rule="evenodd" stroke-linecap="round" stroke-linejoin="round">
        <path d="M8.269 6.445c-3.052 2.846-3.804 7.196-.344 10.712m11.688 3.054c1.087.035 2.871.026 5.355-.025"/>
        <path d="M22.628 23.703c.333-1.242 1.73-2.44 4.192-3.593-1.514-.296-2.765-1.324-3.756-3.083"/>
        <g>
            <path d="M.755 20.283c7.474.104 12.562-.207 15.265-.93 4.054-1.087 6.465-5.236 5.385-9.267-1.08-4.032-5.242-6.419-9.297-5.333"/>
            <path d="M14.791.857c-.245 1.263-1.555 2.555-3.93 3.877 1.53.19 2.85 1.128 3.961 2.814"/>
        </g>
    </g>
</symbol><symbol id="icon-icon-software-3" viewBox="0 0 24 24">
    <title>
        33CCFA81-BE00-47A6-8B5F-0736A0290E0F
    </title>
    <g stroke-width="1.5" fill-rule="evenodd" stroke-linecap="round" stroke-linejoin="round">
        <path d="M23.249.75l-14.25 10.5"/>
        <path d="M6.749 2.25h3"/>
        <path d="M8.249.75v3"/>
        <path d="M1.499 8.25h4.5"/>
        <path d="M3.749 6v4.5"/>
        <path d="M18.651 23.25a62.472 62.472 0 0 1-.561-5.97"/>
        <path d="M5.908 17.28a62.148 62.148 0 0 1-.561 5.97"/>
        <path d="M17.249 9.519c3.569.755 6 2.254 6 3.981 0 2.485-5.037 4.5-11.25 4.5S.749 15.985.749 13.5c0-.258.054-.513.156-.75"/>
        <path d="M12.749 12.009c3.375.083 6 .719 6 1.491 0 .828-3.022 1.5-6.75 1.5s-6.75-.672-6.75-1.5"/>
    </g>
</symbol><symbol id="icon-icon-software-4" viewBox="0 0 24 24">
    <title>
        88C1B978-7585-48AB-A53D-1EFA8ABCA6D6
    </title>
    <g stroke-width="1.5" fill-rule="evenodd" stroke-linecap="round" stroke-linejoin="round">
        <path d="M11.249.75V19.5"/>
        <path d="M11.249 2.25H22.5a.75.75 0 0 1 .576 1.23l-3.4 2.79a.749.749 0 0 0 0 .96l3.4 2.79a.75.75 0 0 1-.576 1.23H11.249"/>
        <path d="M14.239 15.9c4.343.46 7.51 1.9 7.51 3.6 0 2.071-4.7 3.75-10.5 3.75S.749 21.571.749 19.5c0-1.669 3.054-3.084 7.276-3.57"/>
    </g>
</symbol><symbol id="icon-icon-software-5" viewBox="0 0 24 24">
    <title>
        DBF30172-BF3C-4F53-B172-9E74087C868F
    </title>
    <g stroke-width="1.5" fill-rule="evenodd" stroke-linecap="round" stroke-linejoin="round">
        <path d="M13.5 22.5l-2.93-2.344a1.637 1.637 0 0 1 1.751-2.743L13.5 18v-5.25a1.5 1.5 0 0 1 3 0v3l1.993.332A3 3 0 0 1 21 19.041V22.5"/>
        <path d="M5.249 6h7.5"/>
        <path d="M5.249 9h7.5"/>
        <path d="M5.249 12h3.75"/>
        <path d="M7.5 18H2.249a1.5 1.5 0 0 1-1.5-1.5V3a1.5 1.5 0 0 1 1.5-1.5h19.5a1.5 1.5 0 0 1 1.5 1.5v12"/>
        <path d="M18.749 1.5v9"/>
    </g>
</symbol><symbol id="icon-icon-uxui-1" viewBox="0 0 24 24">
    <title>
        43B0AD7D-4D70-40AA-BDE2-0720BDBC14C9
    </title>
    <g stroke-width="1.5" fill-rule="evenodd" stroke-linecap="round" stroke-linejoin="round">
        <path d="M.749 23.243a7.889 7.889 0 0 1 .651-3.114c.47-.92 2.431-1.558 4.894-2.451.666-.241.556-1.943.261-2.261a4.757 4.757 0 0 1-1.279-3.73 3.2 3.2 0 0 1 2.743-3.422"/>
        <path d="M11.4 13.094a4.194 4.194 0 0 1-1.17 2.323c-.295.318-.4 2.02.262 2.261 2.462.893 4.424 1.531 4.893 2.451.428.983.654 2.042.666 3.114"/>
        <path d="M19.367 23.243h2.368v-.817c0-2.894-2-3.361-4.007-4.1-.665-.247-.556-1.984-.261-2.308a4.354 4.354 0 0 0 1.2-2.551"/>
        <circle cx="15.749" cy="6.007" r="5.25"/>
        <path d="M23.249 13.507l-3.788-3.788"/>
    </g>
</symbol><symbol id="icon-icon-uxui-2" viewBox="0 0 24 24">
    <title>
        2E4274DE-D104-4571-A29C-7EDB12D1848F
    </title>
    <g transform="translate(0 1)" stroke-width="1.5" fill-rule="evenodd" stroke-linecap="round" stroke-linejoin="round">
        <circle cx="5.249" cy="17" r="4.5"/>
        <path d="M9.749 17V3.125a2.625 2.625 0 0 0-5.156-.7L.911 15.806"/>
        <circle cx="18.749" cy="17" r="4.5"/>
        <path d="M14.249 17V3.125a2.625 2.625 0 0 1 5.156-.7l3.683 13.377"/>
        <path d="M9.749 8h4.5v3h-4.5z"/>
    </g>
</symbol><symbol id="icon-icon-uxui-3" viewBox="0 0 24 24">
    <title>
        A91BEF99-CAF2-4028-B5CA-EEF03DADBD9E
    </title>
    <g fill-rule="evenodd" stroke-linecap="round" stroke-linejoin="round">
        <rect stroke-width="1.5" x="3.749" y=".75" width="19.5" height="19.5" rx="1.5"/>
        <path d="M20.249 23.25h-18a1.5 1.5 0 0 1-1.5-1.5v-18" stroke-width="1.5"/>
        <path d="M8.623 6.625a.5.5 0 1 0 0 1 .5.5 0 0 0 0-1"/>
        <path d="M20.249 15.75L16.38 9.913a.75.75 0 0 0-1.239-.013l-1.995 2.85-1.236-.989a.749.749 0 0 0-1.093.17L8.271 15.75h11.978z" stroke-width="1.5"/>
    </g>
</symbol><symbol id="icon-icon-uxui-4" viewBox="0 0 24 18">
    <title>
        CEDCCFC9-D422-41E8-B763-B6E142B473D7
    </title>
    <g stroke-width="1.5" fill-rule="evenodd" stroke-linecap="round" stroke-linejoin="round">
        <path d="M8.249 9.024a5.568 5.568 0 0 0 7.5 0"/>
        <path d="M9.749 4.5V6"/>
        <path d="M14.249 4.5V6"/>
        <path d="M3 10.5V2.25A1.5 1.5 0 0 1 4.5.75h15a1.5 1.5 0 0 1 1.5 1.5v8.25"/>
        <path d="M.749 13.5A3.75 3.75 0 0 0 4.5 17.25h15a3.75 3.75 0 0 0 3.75-3.75H.749z"/>
    </g>
</symbol><symbol id="icon-logo" viewBox="0 0 82 31">
    <title>
        logo
    </title>
    <g fill-rule="evenodd">
        <path d="M69.71 15.526c0 2.8-2.267 5.077-5.052 5.077-2.775 0-5.032-2.278-5.032-5.077 0-1.35.526-2.629 1.482-3.604.958-.976 2.218-1.514 3.55-1.514 1.34 0 2.607.538 3.567 1.515a5.115 5.115 0 0 1 1.484 3.603m.893-4.308a7.291 7.291 0 0 0-5.944-3.082c-.869 0-1.748.151-2.613.45-1.973.68-3.552 2.281-4.224 4.28-.823 2.451-.491 4.989.912 6.963a7.274 7.274 0 0 0 5.925 3.046c.858 0 1.728-.146 2.586-.434a6.835 6.835 0 0 0 4.263-4.251c.833-2.44.503-4.98-.905-6.972"/>
        <path d="M29.807 8.4v8.795c0 2.007-1.323 3.408-3.218 3.408-1.871 0-3.179-1.418-3.179-3.449V8.4h-2.35v8.895c0 3.181 2.377 5.58 5.529 5.58 3.175 0 5.57-2.399 5.57-5.58V8.4h-2.352z"/>
        <path d="M51.293 15.848v-.131H46.67v2.169h.46a.524.524 0 0 0 .048.002H49v2.036l-.016.007a6.752 6.752 0 0 1-2.844.632c-2.686 0-4.872-2.278-4.872-5.078 0-2.81 2.186-5.097 4.872-5.097 1.135 0 2.339.486 3.301 1.333.025.023.05.043.075.062l.322.27.267-.282a.714.714 0 0 0 .035-.037c.15-.161.303-.32.45-.475l.17-.178v.001l.67-.706-.525-.425c-1.46-1.221-3.037-1.815-4.824-1.815a7.215 7.215 0 0 0-5.166 2.16 7.387 7.387 0 0 0-2.137 5.23c0 1.976.759 3.826 2.138 5.21a7.241 7.241 0 0 0 5.165 2.14c2.893 0 4.99-1.335 5.011-1.349l.004-.002.004-.003a.622.622 0 0 0 .211-.426c0-.805-.005-1.633-.01-2.434-.005-.928-.011-1.887-.01-2.814"/>
        <path d="M11.027 8.4v5.665l2.331-1.418V8.4z"/>
        <path d="M11.027 22.55h2.331v-8.694l-2.33 1.418z"/>
        <path d="M0 31h82V0H0v31zm2.529-2.64h76.906V2.573H2.529v25.789z"/>
    </g>
</symbol><symbol id="icon-navbar-services-branding" viewBox="0 0 41 12">
    <title>
        DD8D53C5-2C6E-4F0D-94F7-2F46A6FEBA9C
    </title>
    <path d="M30.66 0l-9.806 5.666L11.054 0 0 6.388l2.502 4.328 8.552-4.946 9.8 5.668L30.66 5.77l9.804 5.668V5.666z" fill-rule="nonzero"/>
</symbol></svg>